<?xml version="1.0" encoding="utf-8"?>
<!-- Generator: Adobe Illustrator 24.0.0, SVG Export Plug-In . SVG Version: 6.00 Build 0)  -->
<svg version="1.1" id="Layer_1" xmlns="http://www.w3.org/2000/svg" xmlns:xlink="http://www.w3.org/1999/xlink" x="0px" y="0px"
	 viewBox="0 0 395 140" style="enable-background:new 0 0 395 140;" xml:space="preserve">
<style type="text/css">
	.st0{fill-rule:evenodd;clip-rule:evenodd;fill:#FFFFFF;}
</style>
<g>
	<path class="st0" d="M272,39.7v7.6h2c1.3,0,3.2,0,4.2-0.9c0.8-0.7,1.1-1.8,1.1-2.8c0-1.5-0.5-2.9-2-3.5c-0.9-0.3-2.2-0.4-3.1-0.4
		C274.2,39.7,272,39.7,272,39.7z M321.7,62.5h-5.5v-27h5.5V62.5z M306.6,41c-2-1.2-3.9-2-6.2-2c-2,0-3.9,1.1-3.9,3.3
		c0,1.9,1.6,2.4,3.1,2.9l3.3,0.9c4,1.1,6.8,3.7,6.8,8c0,6.3-5.5,9.1-11.1,9.1c-3.1,0-6.4-0.9-9.1-2.4h-0.1l1.9-4h0.1
		c2.4,1.2,4.6,2.1,7.4,2.1c2.6,0,4.9-0.9,4.9-3.9c0-2.2-1.8-3.1-3.7-3.7l-3-0.8c-2.1-0.6-4.1-1.5-5.3-3.4c-0.8-1.2-1.1-2.6-1.1-4.1
		c0-5.5,4.6-8.3,9.6-8.3c3,0,6.4,0.9,8.9,2.6l0.1,0.1L306.6,41L306.6,41z M272,51.1v11.4h-5.1v-27h10c4.7,0,7.9,3.1,7.9,7.9
		c0,3.4-2.2,7.3-6,7.4h-0.4l0.3,0.2c0.4,0.3,0.8,0.7,1.1,1.1c1.2,1.5,2.2,3.3,3.2,5c1.1,1.7,2.1,3.5,3.1,5.3l0.1,0.1H280l0,0
		c-0.8-1.4-1.7-2.9-2.5-4.4c-0.9-1.7-1.8-3.4-2.9-5c-0.4-0.6-1-1.4-1.7-1.7C272.6,51.3,272.3,51.2,272,51.1L272,51.1z M250.4,39.7
		v6.5h7.8v4.2h-7.7V58h10.3v4.5h-15.6v-27h15.3l-0.7,4.2H250.4z M229.4,55l0.1-0.6c0.4-1.8,1-3.7,1.6-5.4l4.6-13.4h5.5l-9.4,27.2
		H227l-9.2-27.2h5.7l4.5,14.1c0.5,1.6,0.9,3.1,1.3,4.7L229.4,55z M213.8,62.5h-5.5v-27h5.5V62.5z M186.1,43.1h-0.2v0.1
		c0.2,2.6,0.2,5.1,0.3,7.7l0.2,11.5h-5v-27h5.9l5.2,10.8c1.2,2.5,2.2,5.1,3,7.7V54h0.2v-0.1c-0.2-2.5-0.4-5-0.4-7.5l-0.1-11h5v27
		h-5.5L190.1,52c-0.2-0.5-0.5-1.1-0.7-1.6c-0.6-1.4-1.2-2.8-1.8-4.2c-0.4-1-0.8-2-1.2-3.1L186.1,43.1z M173.6,35.5v18.2
		c0,1.5,0.1,2.8-0.4,4.2c-1.2,3.7-5.6,5.1-9.1,5.1c-3.1,0-6.8-0.7-8.6-3.6c-1.1-1.7-1.2-3.1-1.2-5.1V35.5h5.4v17.8
		c0,1,0,2.4,0.5,3.3c0.8,1.5,2.3,1.9,3.8,1.9c2.2,0,4-1,4.3-3.3c0.1-0.8,0.1-1.6,0.1-2.4V35.5H173.6z M355.1,46.7l0.1-0.3
		c0.5-1.1,0.9-2.3,1.5-3.4l3.5-7.5h6.2l-8.6,15.9v11.1h-5.5V51.4l-8.1-15.2l-0.7,3.7h-5.9v22.7h-5.3V39.8h-6.1v-4.3h24l3.5,7.4
		c0.5,1.1,1,2.3,1.4,3.5V46.7z"/>
	<path class="st0" d="M176.8,91.3c0,4.9-1.4,10.3-6,12.8c-1.8,1-3.4,1.2-5.4,1.2c-3.6,0-6.5-0.8-8.8-3.8c-2.2-2.9-3.1-6.4-3.1-10.1
		c0-4.8,1.6-10.2,6.1-12.6c1.7-0.9,3.7-1.3,5.6-1.3C173.3,77.6,176.8,83.9,176.8,91.3 M188.4,82.1v6.5h7v4.2h-7v12.1h-5.2v-27h14.5
		l-0.6,4.2C197.1,82.1,188.4,82.1,188.4,82.1z M170.8,91.4c0-2.1-0.1-4.4-0.7-6.4c-0.7-2.2-2.7-3.5-4.9-3.5c-1.8,0-3.5,0.9-4.4,2.5
		c-1.2,2.2-1.4,5.1-1.4,7.5c0,2.6,0.2,7.3,2.5,8.9c1,0.7,2.1,1,3.3,1C170.5,101.4,170.8,95.4,170.8,91.4z"/>
	<path class="st0" d="M216.7,100.6h9.7l-0.9,4.3h-14.2v-27h5.4V100.6z M243.3,98.5h-8.2l-1.9,6.5h-5.5l8.9-27.1h5.7l8.5,27.1h-5.6
		L243.3,98.5z M263.2,82.2v22.7h-5.3V82.2h-6.7v-4.3h19.4l-0.9,4.3H263.2z M282.5,97.4l0.1-0.6c0.4-1.8,1-3.7,1.6-5.4l4.6-13.4h5.5
		l-9.4,27.2h-4.8L270.9,78h5.7l4.5,14.1c0.5,1.6,0.9,3.1,1.3,4.7L282.5,97.4z M304,104.9h-5.5v-27h5.5V104.9z M324.3,98.5h-8.2
		l-1.9,6.5h-5.5l8.9-27.1h5.7l8.5,27.1h-5.6L324.3,98.5z M239.3,83.1l-0.1,0.5c-0.4,1.8-0.8,3.5-1.3,5.3c-0.4,1.7-0.9,3.4-1.5,5.1
		l-0.1,0.2h5.7l0-0.2c-0.6-1.8-1.1-3.6-1.5-5.5c-0.4-1.6-0.7-3.2-1.1-4.8L239.3,83.1z M320.3,83.1l-0.1,0.5
		c-0.4,1.8-0.8,3.5-1.3,5.3c-0.4,1.7-0.9,3.4-1.5,5.1l-0.1,0.2h5.7V94c-0.6-1.8-1.1-3.6-1.5-5.5c-0.4-1.6-0.7-3.2-1.1-4.8
		L320.3,83.1z"/>
</g>
<g>
	<path class="st0" d="M70.7,2.5C33.4,2.5,3.2,32.8,3.2,70c0,37.3,30.2,67.5,67.5,67.5s67.5-30.2,67.5-67.5
		C138.2,32.8,108,2.5,70.7,2.5 M70.7,0.8c38.2,0,69.2,31,69.2,69.2s-31,69.2-69.2,69.2S1.5,108.2,1.5,70S32.5,0.8,70.7,0.8"/>
	<path class="st0" d="M77.9,94.6c0.5-0.1,1.3-0.8,1.8-0.6c0.1,0.1,0.2,0.2,0.2,0.4c0,0.1,0,0.2,0,0.3c0,0.1,0,0.2,0,0.3
		c-0.1,1.6-0.1,2.9,0,4.4c0,0.7,0.1,1.3,0.1,2c0,0.4,0.1,0.8,0.1,1.2c0,0.2,0.1,0.6,0.2,0.8c0,0.1,0.1,0.3,0.2,0.4l0.2,0.1
		c0.4,0.3,0.9,0.6,1.3,0.9l0.1,0.1c0.5,0.5,0.9,0.9,1.4,1.4c0.5,0.6,1,1.2,1.4,1.9c0.3,0.5,0.7,1.1,0.9,1.6c0,0.1,0.1,0.2,0,0.3
		c0,0.2-0.1,0.2-0.3,0.3h-0.2l-0.8,0.2c-0.2,0.1-0.3,0.1-0.5,0.1c-0.1,0-0.2,0-0.3,0c-0.5-0.1-0.9-0.3-1.3-0.5l-4.6-1.9
		c-1-0.4-1.2-0.2-1.6-1.3c-0.1-0.4-0.2-0.9-0.3-1.3c-0.2-0.8-0.3-1.7-0.5-2.5c0-0.2-0.1-0.8-0.4-0.9c0,0,0,0-0.1,0h-0.1
		c-0.2,0.1-0.2,0.7-0.3,0.9c-0.3,1.3-0.2,2.2-0.7,3.7c-0.2,0.5-0.4,1-0.6,1.4c-0.4,0.7-1,1.4-1.6,2c-0.1,0.1-1,0.8-1.1,0.8
		c-0.6,0.1-1,0-1.4-0.5l-1.2-1.8c-0.3-0.4-0.5-0.8-0.8-1.2c-0.1-0.2-0.3-0.4-0.3-0.6c-0.1-0.2,0-0.5,0-0.7c0.2-1.5,0.3-2.8,0.3-4.3
		c0-1.2,0.1-2.4,0.1-3.5c0-0.2,0-0.5,0-0.8v-0.1c-0.1-0.7-0.2-1-0.3-1c-0.1,0-0.1,0-0.2,0.1c-0.2,0.1-0.2,1.4-0.3,1.7
		c-0.4,2.8-0.5,6.4-2.3,8.6c-0.5,0.6-1,1.1-1.6,1.1l-1.3,0.1h-0.4l-1.5,0.8c-0.1,0.1-0.3,0.1-0.4,0.2c-0.9,0.4-1.9,0.6-2.8,0.4
		c-0.1,0-0.1,0-0.2-0.1c-0.3-0.1-0.6-0.2-0.4-0.6c0.2-0.5,0.5-0.9,0.8-1.4c0.4-0.8,1.1-2,1.8-2.6c0.9-0.8,2.8-2.2,3.2-3.3
		c0-0.1,0.1-0.2,0.1-0.3c0.4-2,0.2-6.9,0.2-9c0-0.2,0-0.4-0.1-0.6s-0.2-0.5-0.3-0.8c-0.5-1.3-1.1-2.7-1.3-3.9
		c-0.1-0.3-0.2-0.7-0.3-1c-0.1-0.2-0.2-0.4-0.4-0.6s-0.4-0.3-0.7-0.4c-1.2-0.5-2.6-1-3.7-1.6c-0.7-0.3-1.3-0.6-1.9-1.1
		c-0.3-0.2-0.4-0.3-0.5-0.5c-0.2-0.3-0.4-0.9-0.2-1.3c0.3-0.5,0.9-0.4,1.3-0.2c0.1,0.1,0.3,0.1,0.4,0.2c0.9,0.3,2.3,0.8,2.7,0.7
		c0.2,0,0.4-0.1,0.2-0.5c-0.1-0.1-0.1-0.2-0.2-0.3c-0.1-0.1-0.1-0.2-0.2-0.3c-0.1-0.2-0.2-0.3-0.3-0.4c-0.6-1-1.1-1.8-1.6-3
		c-0.1-0.1-0.1-0.3-0.1-0.4c-0.2-0.9,0.6-1.2,1.2-0.8c0.3,0.2,0.5,0.5,0.7,0.7c0.9,1.3,1.5,2.8,2.6,4.2c0.5,0.6,0.6,0.7,1.3,1.1
		s1.4,0.7,2.2,1.2c0.5,0.3,1.2,1.9,1.4,2.4c0.4,0.9,0.9,1.9,1.2,2.8c0.5,1.4,0.9,2.5,1.1,3.8c0.1,0.7,0.2,1.2,0.4,1.8
		c0.1,0.2,0.1,0.3,0.3,0.3c0.3,0,0.3-0.7,0.3-1c0-0.2,0-0.3,0-0.4s0-0.2,0-0.4c0-0.3,0-0.4,0-0.7c0-0.5,0-1-0.1-1.5
		c0-0.4-0.1-0.7-0.1-1.1c-0.2-1.4-1.7-3.9-2.4-5.1c-0.8-1.3-2.3-3.8-3.2-5c-0.3-0.4-2.1-1.4-2.9-2.2c-0.3-0.3-0.3-0.6-0.2-0.9
		c0.1-0.2,0.2-0.4,0.4-0.4c0.2-0.1,0.3-0.1,0.5-0.1c0.3,0,1.1,0.4,1.6,0.7c0.3,0.1,0.6,0.3,0.9,0.3c0.3-0.1,0.4-0.2,0.4-0.5
		s0-0.7,0-1.1c0-0.3,0-0.4,0.1-0.6c0.1-0.3,0.3-0.5,0.6-0.4c0.5,0.2,0.7,0.8,0.7,1.4c0,0.5,0.1,1.5,0.3,2.6c0.2,0.7,0.5,1.3,1.1,1.9
		c1.2,1.1,1.8,1.9,2.6,3c0.4,0.6,0.5,1.4,0.5,2.1c0,0.1,0,0.5,0.1,0.6c0,0.1,0.2,0.2,0.3,0.2c0.3,0,0.5-0.1,0.5-0.4
		c0-0.2,0-0.5,0-0.8c0-0.2,0-0.5,0-0.7s0-0.4,0-0.6c0-0.3,0-0.7-0.1-1c0-0.1-0.1-0.3-0.1-0.4c-0.1-0.2-0.2-0.3-0.3-0.4
		c-0.8-1-1.7-2.1-2.3-3.3c-0.6-1-0.9-2.2-1.3-3.2c-0.7-1.7-2.5-4.3-4-5.2c-0.3-0.2-1-0.5-1.5-0.8l-0.1-0.1c-0.1-0.1-0.2-0.2-0.3-0.2
		c-0.2-0.3,0-0.8,0.4-0.8c0.1,0,0.2,0,0.2,0c0.5,0.1,1,0.4,1.5,0.4c0.1,0,0.1-0.1,0.2-0.1c0.1-0.1,0.1-0.2,0.2-0.3
		c0.1-0.2,0-0.5,0-0.7c-0.1-0.7-0.5-1.7-0.7-2.5c-0.1-0.3-0.1-0.5,0-0.8c0.1-0.4,0.2-0.7,0.6-0.7c0.6-0.1,0.9,0.6,1,1.1
		c0,0.2,0.1,0.2,0.1,0.4c0.6,2.4,1,4,2.3,5.6c0.8,1,2,1.9,2.9,2.7c0.2,0.2,0.5,0.5,0.6,0.6s0.1,0.1,0.2,0.1c0.2,0.1,0.3,0.1,0.4-0.1
		c0.1-0.3,0.1-0.7-0.1-0.9c-0.1-0.2-0.4-0.5-0.6-0.8c-0.4-0.6-0.8-1.3-0.9-1.8c0-0.1,0-0.2,0-0.4c0-0.1,0-0.3,0.1-0.4
		c0.1-0.5,0.1-0.9,0.2-1.3c0-0.2,0.1-0.3,0.1-0.6c0-0.1,0-0.2,0-0.3c0-0.7-0.4-2.4-0.1-2.9c0.1-0.1,0.1-0.2,0.2-0.3s0.2-0.1,0.2-0.2
		c0.3-0.2,0.5-0.3,0.8-0.4c0.3-0.1,0.5-0.1,0.8,0c0.1,0,0.2,0.1,0.3,0.1c0.1,0.1,0.3,0.2,0.4,0.4c0.6,0.9,0.8,2.3,1.2,3.4
		c0.1,0.1,0.1,0.3,0.3,0.6c0.1,0.3,0.3,0.7,0.5,0.8c0.1,0.1,0.3,0.1,0.5,0c0.1-0.1,0.1-0.2,0.1-0.3c0-0.1,0-0.5-0.1-0.8
		c0-0.1,0-0.1,0-0.2s0-0.2,0-0.3c0-0.1,0-0.2,0-0.4c0-0.1,0-0.2,0.1-0.2c0.8-1.3,1.2-3.3,1.4-4.9c0.1-0.6,0.5-0.8,0.9-0.8h0.1
		c0.2,0,0.3,0,0.5,0c0.1,0,0.1,0,0.2,0c0.7,0.2,0.8,0.6,0.7,1.4c0,0.1,0,0.2,0,0.3c-0.2,1.4-0.2,2.9-0.3,4.2c0,0.3,0,0.4,0,0.6
		c0.1,1.2-0.7,1.2-1.3,1.3c-1,0.1-1.6,0.5-1.9,1.4c-0.1,0.2-0.1,0.4-0.2,0.5c-0.1,0.2-0.1,0.3-0.2,0.5s-0.2,0.5-0.2,0.7
		c-0.1,0.5-0.3,1.1,0,1.8c0.1,0.2,0.2,0.5,0.3,0.8c0.1,0.5-0.2,1-0.6,1.4c-0.7,0.8-1.4,0.8-1.6,2.5c-0.1,1.2,0.7,2.7,1.8,3.2
		c0.3,0.1,0.6,0.1,0.9,0.1c0.1,0,0.5-0.1,0.6-0.1s0.1,0,0.2,0c0.5-0.1,0.5,0,0.9,0.2c1.5,0.9,2.8,0.2,3.5-0.7
		c0.2-0.3,0.4-0.6,0.7-0.7c0,0,0,0,0.1,0c0.3,0,0.5,0.1,0.6,0.2s-0.2,1.7-0.4,2.3c0,0.1-0.1,0.1-0.1,0.1c-0.3,0.5-0.8,1-1.2,1.5
		c-0.2,0.3-0.4,0.6-0.7,0.9c-0.1,0.1-0.3,0.4-0.4,0.5c-0.1,0.2-0.2,0.4-0.2,0.5c0,0.3,0.1,0.5,0.5,0.3s1.3-0.9,1.6-1.3
		c0.3-0.2,0.5-0.5,0.8-0.7c0.6-0.6,1.1-1.1,1.3-1.3c0.7-0.7,2.4-2,3.1-2.1c0.8-0.1,1.5,0,1.8,0.9c0.3,0.8,0.2,1.3-0.5,2
		c-0.8,0.8-2.7,3-3,3.7c-0.1,0.3-1.8,3.6-2.1,4c-0.7,0.8-1.2,1.3-2.1,2.2c-0.1,0.1-0.4,0.4-0.5,0.5s-0.2,0.2-0.2,0.3
		C77.1,94.4,77.4,94.8,77.9,94.6 M49.5,80.5c0.5-0.5,1.1,0,1.3,0.5c0.2,0.4,0.2,1.2-0.3,1.4C49.6,82.8,48.7,81.1,49.5,80.5 M51.2,87
		c-0.2,0.5-0.8,0.6-1.3,0.4c-0.3-0.2-0.5,0.3-0.6,0.5c-0.3,0.5-0.8,0.9-1.4,1C47.5,89,47,89,46.7,88.7c-0.3-0.2-0.5-0.6-0.5-1
		s0.1-0.9,0.2-1.2c0.1-0.3,0.3-0.7,0.2-1c-0.1-0.2-0.3-0.4-0.5-0.6c-0.7-0.7-1-1.3-0.3-2.1c0.4-0.5,0.8-0.6,0.9-1.3
		c0-0.3,0.1-0.5,0.3-0.6c0.2-0.2,0.5-0.2,0.7-0.1c0.3,0.1,0.5,0.3,0.7,0.5c0.4,0.8-0.6,1.6-1.1,2.1c-0.1,0.1-0.5,0.5-0.4,0.6
		s0.5,0,0.6-0.1c0.1,0,0.2-0.1,0.3-0.2c0.5-0.3,1-0.4,1,0.4c0,0.5-0.1,0.9-0.3,1.4c0,0.1-0.2,0.9,0,0.9c0.1,0,0.2-0.1,0.3-0.1
		c0.1-0.1,0.2-0.3,0.3-0.5c0.1-0.3,0.2-0.6,0.3-0.9c0.1-0.2,0.2-0.5,0.5-0.6c0.1,0,0.2-0.1,0.3-0.1c0.7,0,1.1,0.6,1.2,1.3
		C51.5,86.1,51.5,86.6,51.2,87 M45,79.8c-0.3,1-1.3,1.3-2.3,1.2c-0.8-0.1-1.5-0.9-1.7-1.7c0-0.1-0.1-0.2-0.1-0.3
		c0-0.2,0-0.3,0.1-0.5s0.2-0.7,0.1-0.9c-0.1-0.2-0.4-0.3-0.5-0.4s-0.2-0.1-0.2-0.2c-0.5-0.6,0-1.5,0.4-2.1c0.1-0.1,0.2-0.2,0.2-0.3
		c0.1-0.2,0.3-0.3,0.4-0.5c0.1-0.2,0.1-0.3,0.2-0.5c0-0.2,0-0.3,0.1-0.5c0.1-0.3,0.3-0.6,0.6-0.8c0.2-0.1,0.4-0.2,0.6,0
		c0.2,0.1,0.2,0.4,0.2,0.6c0,0.3-0.1,0.3-0.2,0.6c-0.2,0.4-0.4,0.7-0.5,1.1c0,0.1-0.2,0.4-0.1,0.4c0.1,0,0.2,0,0.2-0.1
		c0.3-0.2,0.5-0.4,0.7-0.6c0.1-0.1,0.4-0.5,0.6-0.3c0.2,0.2,0,1.2-0.1,1.5s-0.1,0.5-0.2,0.8c-0.2,0.7-0.5,1.3-0.7,2
		c0,0.1,0,0.1-0.1,0.2c0,0.3,0.2,0.2,0.4,0.1l0.1-0.1c0.7-0.6,1.1-0.9,1.7,0.1C45,78.8,45.1,79.3,45,79.8 M44.9,86.7
		c-0.1,0.8-0.5,1.6-1.2,2c-0.2,0.1-0.4,0.2-0.7,0.1c-0.6-0.2-0.9-1.1-0.9-1.6c0-0.3,0-1,0.3-1.1c0.1,0,0.2,0,0.3,0s0.2,0.1,0.3,0.1
		l0,0l0,0c0.2,0.1,0.6,0.2,0.7,0c0-0.1-0.1-0.2-0.2-0.3c-0.2-0.2-0.4-0.3-0.7-0.5l-0.1-0.1c-1-0.6-1.8-2.2-0.5-2.9l0,0l0,0
		c0.6-0.2,1.6-0.3,2,0.4c0.2,0.3,0.1,0.6,0,0.8C44,84,43.7,84.5,43.9,85c0.1,0.3,0.3,0.5,0.4,0.8c0.1,0.1,0.2,0.3,0.2,0.5
		C44.9,86.5,44.9,86.6,44.9,86.7 M40.1,87.9c-0.2,0.2-0.5,0.3-0.8,0.4c-0.2,0.1-0.5,0.1-0.7,0.1c-0.3,0-0.5-0.1-0.7-0.3
		c-0.1-0.1-0.1-0.2-0.1-0.2c0-0.1-0.1-0.1-0.1-0.2h-0.1c-0.1,0-0.3,0.2-0.3,0.3c-0.1,0.2-0.3,0.4-0.4,0.5c-0.5,0.5-1.1,0.4-1.7,0.1
		c-0.3-0.2-0.6-0.4-0.8-0.7c-0.6-0.7-1.1-1.9-0.6-2.7c0.5-0.8,1.6-1.1,2.4-1.2c0.1,0,0.3,0,0.4,0c0.1,0,0.1,0,0.2,0
		c0.2,0,0.4,0,0.5,0.2s0,0.5-0.1,0.6c-0.3,0.4-0.6,0.7-1,1c-0.1,0.1-0.6,0.4-0.3,0.5c0.2,0.1,0.4,0,0.5-0.1c0.6-0.3,1-0.6,1.4-1.1
		c0.1-0.1,0.2-0.2,0.2-0.3c0.1-0.1,0.4-0.4,0.5-0.3c0.2,0.1,0.2,0.5,0.2,0.7c0,0.1,0,0.2,0,0.2c0,0.3,0.1,1.2,0.4,1.2
		c0.1,0,0.1-0.2,0.1-0.2c0-0.7-0.1-3.6,0.9-3.6c0.3,0,0.5,0.3,0.6,0.5c0.1,0.4,0.2,0.9,0.2,1.3C40.8,85.6,40.9,87.2,40.1,87.9
		 M33.7,80.6c0-0.2-0.2-0.4-0.3-0.5c-0.2,0-0.3-0.1-0.4-0.1c-1.3-0.4-1.1-1.5-0.5-2.3c0.4-0.5,1-0.9,1.2-1.5c0.2-0.5,0-0.9,0.1-1.3
		c0-0.1,0-0.1,0-0.2c0.1-0.5,0.6-0.7,1-0.8c0.4-0.1,0.7-0.2,1-0.3c0.6-0.2,1.1-0.8,1.5-0.9s0.8,0.1,0.1,0.9
		c-0.1,0.1-0.2,0.2-0.3,0.4c-0.5,0.7-0.9,1.4-1.6,2.1c-0.4,0.4-0.8,0.7-1.2,1.2c-0.2,0.2-0.7,0.8-0.7,1.1l0,0c0,0.1,0.1,0.1,0.1,0.1
		c0.1,0,0.2-0.1,0.3-0.1c0.2-0.2,0.4-0.5,0.6-0.6c0.2-0.2,0.4-0.4,0.7-0.5c0.1,0,0.4-0.3,0.4-0.2l0,0l0,0c0,0-0.1,0.4-0.1,0.5
		c-0.2,0.9-0.6,2.4-0.4,3.3c0.1,0.2,0.2,0,0.2-0.1c0.1-0.2,0.1-0.4,0.1-0.5c0.1-0.3,0.1-0.6,0.2-0.8c0-0.2,0.4-1.7,0.7-1.6
		c0.1,0.1,0.3,0.5,0.4,0.7c0.2,0.5,0.5,0.8,0.9,1.1c0,0,0.1,0.1,0.2,0.1c0.1-0.1-0.2-0.6-0.3-0.7c-1.2-1.8-0.8-3.6,0.3-5
		c0.1-0.1,0.1-0.2,0.2-0.2c0.9-1.1,1.7-1.2,1.4,0.4c0,0.1-0.1,0.2-0.1,0.3c-0.3,0.8-0.6,1.6-0.6,2.6c0,0.4,0.1,0.8,0.3,1.1
		c0.4,1,1.1,2.4,0.1,3.3c-0.2,0.2-0.6,0.3-1,0.2c-0.3-0.1-0.5-0.3-0.8-0.3c-0.3-0.1-0.5,0.2-0.7,0.4c-0.2,0.2-0.3,0.5-0.5,0.6
		c-0.4,0.4-1,0.6-1.5,0.4c-0.6-0.2-0.9-0.8-1-1.4C33.7,80.9,33.7,80.8,33.7,80.6 M31.1,84.4c-0.5-0.2-0.6-0.9-0.4-1.3
		c0.2-0.5,0.6-1,1.2-1c0.4,0,0.6,0.2,0.8,0.5c0.2,0.2,0.2,0.5,0.2,0.7c-0.1,0.3-0.3,0.6-0.6,0.8C32,84.3,31.4,84.5,31.1,84.4
		 M28.3,78.1c0.1-0.1,0.4-0.2,0.5-0.1c0,0,0,0.1,0,0.2c-0.1,0.2-0.1,0.3-0.1,0.5c-0.1,0.4-0.1,1,0,1.4c0.1,0.3,0.3,0.3,0.3,0
		c0-0.6,0.1-0.9,0.3-1.4c0.1-0.2,0.2-0.4,0.3-0.5c0.2-0.2,0.4-0.5,0.6-0.6c0.1-0.1,0.3-0.1,0.5,0s0.2,0.3,0.2,0.4
		c0,0.3-0.1,0.5-0.2,0.8c-0.2,0.5-0.3,1-0.2,1.5c0,0.8-0.2,1.6-1.1,1.9c-0.2,0-0.3,0.1-0.5,0.1c-0.4,0-0.8,0-1-0.3
		c-0.1-0.2-0.2-0.4-0.3-0.6c-0.1-0.2-0.2-0.3-0.5-0.3c-0.1,0-0.2,0.1-0.3,0.1c-0.2,0.1-0.5,0.2-0.8,0.1c-0.5-0.1-0.9-0.6-1-1
		c-0.3-0.7-0.2-1.4,0.3-2c0.1-0.1,0.2-0.2,0.3-0.3c0.8-0.6,0.3-0.7,0.6-1.4c0-0.1,0.1-0.2,0.2-0.3c0.2-0.2,0.5-0.3,0.8-0.4
		c0.7-0.2,1.5-0.1,2,0.3c0.3,0.2,0.6,0.5,0.1,0.8c-1.2,0.7-1.7,0.7-2.6,1.9l-0.1,0.2c0.1,0.1,0.5-0.2,0.6-0.2c0,0,0,0,0.1-0.1
		C27.6,78.5,27.9,78.3,28.3,78.1 M31.2,67.4c0.2,0.1,0.4,0.2,0.5,0.4c0.2,0.1,0.4,0.4,0.4,0.6c-0.1,0.2-0.4,0.2-0.6,0.2
		c-0.5,0-1.1-0.1-1.6-0.2c-0.7-0.1-1.3-0.1-1.9,0.2c-0.6,0.3-1.6,0.6-2.1-0.1c-0.1-0.2-0.2-0.4-0.2-0.6s0-0.4,0-0.7
		c0.1-0.7-0.4-0.6-0.8-1.3c-0.8-1.1,0-3.2,1.4-3.1c0.2,0,0.4,0.1,0.6,0.1c0.3,0.1,0.6,0.2,0.9,0.4c0.2,0.1,0.4,0.2,0.6,0.3
		s0.4,0.1,0.6,0s0.4-0.2,0.6-0.3c0.4-0.1,0.8,0.2,1.1,0.4c0.3,0.2,0.6,0.5,0.8,0.8c0.3,0.4,0.7,0.9,0.9,1.5c0.1,0.2,0.3,0.8,0.1,1
		c-0.1,0.1-0.1,0.1-0.2,0.1c-0.1,0-0.3,0-0.4,0c-0.4-0.2-0.7-0.7-0.9-1.1c-0.2-0.5-0.5-1.1-0.9-1.4c-0.1-0.1-0.2-0.2-0.2-0.1
		c-0.1,0.1,0,0.4,0,0.5c0.1,0.2,0.2,0.3,0.2,0.5c0.1,0.1,0.2,0.4,0.2,0.6c0,0.3-0.2,0.2-0.3,0.1c-0.5-0.2-0.9-0.4-1.4-0.6
		s-0.8-0.3-1.3-0.4c-0.1,0-0.6-0.1-0.7,0.1c0,0.1,0.1,0.2,0.2,0.3c0.7,0.2,1.2,0.4,1.8,0.8c0.3,0.2,0,0.3-0.2,0.4
		c-0.4,0.2-0.8,0.3-1.2,0.6c-0.1,0.1-0.4,0.2-0.3,0.3c0,0.1,0.5,0,0.6-0.1C28.9,66.9,29.7,66.9,31.2,67.4 M28,56.5
		c0.5-0.2,1-0.5,1.3-0.9s0.7-0.9,1.3-0.7c0.4,0.2,0.4,0.7,0.2,1c-0.5,1-1.6,1.4-2.6,1.8c-0.1,0-0.5,0.2-0.5,0.4
		c0,0.1,0.3,0.1,0.4,0.1c0.3-0.1,0.6-0.2,0.9-0.2c0.2-0.1,0.4,0,0.2,0.2c0,0.1-0.1,0.1-0.1,0.2c-0.1,0.3-0.3,0.5-0.4,0.8
		c-0.1,0.4-0.2,0.7-0.2,1.1c0,0.1,0,0.2,0.1,0.2s0.2-0.3,0.3-0.4c0.2-0.6,0.5-1.1,0.8-1.6c0.3-0.4,0.6-0.9,0.9-1.3
		c0.2-0.2,0.3-0.2,0.4,0.1s0.1,0.6,0.2,0.9c0,0.1,0.3,0.8,0.5,0.7c0.1,0,0.1-0.3,0.1-0.4c0-0.2,0-0.4-0.1-0.5
		c-0.1-0.3-0.1-0.6-0.1-0.9c0-0.3,0-0.6,0-1c0-0.2,0.2-0.9,0.4-0.9c0.2,0,0.5,0.7,0.5,0.9c0.2,0.6,0.3,1.3,0.3,2c0,0.3,0,0.6-0.1,1
		c-0.1,0.5-0.2,0.9-0.6,1.2c-0.3,0.2-0.6,0.3-0.9,0.3c-0.1,0-0.2-0.1-0.3-0.1c-0.2-0.1-0.3-0.3-0.5,0c0,0,0,0.1-0.1,0.1
		c-0.5,0.9-1,1.4-2.1,1.4c-1.3,0-2.1-1.2-1.5-2.3c0.1-0.2,0.4-0.6,0.3-0.8c0-0.1-0.2-0.3-0.2-0.3c-0.1-0.1-0.2-0.2-0.2-0.3
		c-0.1-0.1-0.1-0.2-0.1-0.3c-0.1-0.3,0-0.6,0.2-0.8C27.1,56.8,27.6,56.7,28,56.5 M27.3,53.3c0.2-0.6,1-0.8,1.5-0.6
		c0.6,0.3,0.8,1,0.3,1.5c-0.6,0.7-1.9,0.1-1.9-0.7C27.3,53.4,27.3,53.4,27.3,53.3 M30.3,51.7c0.1-0.3,0.2-0.4,0.4-0.6
		c0.3-0.2,0.5-0.3,0.5-0.6c0-0.2,0-0.4,0-0.6c0-0.2,0-0.4,0.1-0.5c0.2-1.2,1-1.7,2.2-1.1c0.3,0.1,0.3,0.2,0.6,0.1
		c0.4-0.1,0.6,0,0.8,0.3s0.3,0.7,0.2,1s-0.3,0.7-0.5,0.9c-0.4,0.6-1.2,1.2-1.5,0.2c-0.1-0.1-0.2-0.9-0.5-0.8c-0.1,0-0.1,0.3-0.1,0.4
		c0,0.5,0,1,0,1.5c0,0,0,0,0,0.1c0,0.3,0,0.7-0.3,0.9c-0.5,0.4-1.3,0.4-1.8-0.1C30.3,52.4,30.2,52.1,30.3,51.7 M37.1,52.8
		c0,0.1,0.1,0.2,0.1,0.3s0.1,0.2,0.2,0.3h0.1c0.1,0,0.2,0,0.3,0c0.4,0.1,0.8,0.2,0.9,0.6c0,0.1,0,0.2,0,0.3c0,0.3,0,0.6-0.1,0.8
		c-0.2,0.5-0.5,1.2-1.1,1.4c-0.5,0.2-0.9-0.5-1.1-0.8c-0.1-0.4-0.2-0.7-0.3-1.1c0-0.2-0.1-0.4-0.2-0.6c0-0.1-0.1-0.2-0.2-0.2
		c-0.1,0-0.1,0.2-0.1,0.2c0,0.2,0,0.5,0,0.7c0,0.5,0.2,1.1,0.3,1.6c0,0.1,0.1,0.2,0.1,0.3c0.1,0.2,0.2,0.5,0.1,0.7
		c-0.1,0.1-0.3,0.1-0.4,0.1c-0.1,0-0.2,0-0.3,0s-0.4,0-0.4,0.2c0,0.1,0.1,0.2,0.2,0.2c0.1,0,0.1,0,0.2,0.1c0.7,0.2,1.5,0.3,2,0.8
		s0.8,1.2,0,1.6c-0.2,0.1-0.5,0.1-0.7,0.1c-0.6-0.1-1-0.4-1.5-0.8c-0.3-0.3-0.6-0.7-0.9-1.1c-0.1-0.2-0.3-0.5-0.4-0.7
		c-0.1-0.4,0.2-0.8,0.4-1c0.4-0.4,0.1-1.1-0.1-1.5c-0.4-0.8-0.5-1.8,0-2.5c0.2-0.3,0.6-0.6,0.9-0.7c0.3-0.2,0.7-0.2,1-0.1
		C36.7,52.1,36.9,52.4,37.1,52.8 M36.6,45.6c0.5-0.3,1.1-0.3,1.6,0c0.1,0,0.2,0.1,0.3,0.1c0.2,0.1,0.5,0.2,0.7,0.2s0.4-0.1,0.5-0.1
		s0.2,0,0.3,0s0.2,0,0.2,0c0.3,0,0.6,0.1,0.8,0.2c0.6,0.4,0.7,1.2,0.5,1.9c0,0.1-0.1,0.2-0.2,0.3c-0.3,0.5-0.7,0.7-1.3,0.9
		c-0.1,0-0.1,0-0.2,0c-0.3,0-0.6,0.1-0.8-0.1c-0.1-0.1-0.1-0.2-0.1-0.3c-0.1-0.6,0.3-1,0.6-1.5c0-0.1,0.2-0.3,0.1-0.4h-0.2
		c-0.4,0.3-0.6,0.6-0.9,0.9c-0.1,0.1-0.1,0-0.2-0.1c-0.1-0.2-0.2-0.3-0.4-0.5c-0.1-0.2-0.3-0.4-0.5-0.5c0,0-0.2-0.2-0.3-0.1
		c0,0,0,0.2,0.1,0.3c0,0.1,0.1,0.2,0.1,0.2c0,0.1,0.1,0.1,0.1,0.2c0.1,0.1,0.1,0.2,0.2,0.3c0.2,0.4,0.2,0.7,0.3,1.1
		c0.1,0.5-0.3,0.9-0.8,0.9c-0.1,0-0.1,0-0.2,0c-0.1,0-0.1,0-0.2,0c-0.5-0.2-0.6-0.7-0.6-1.2c0-0.1,0-0.2,0-0.4c0-0.3-0.2-0.7-0.4-1
		c-0.1-0.2-0.1-0.5,0-0.8C36.2,46,36.3,45.8,36.6,45.6 M46.1,50.8c0.1,0,0.2,0.1,0.2,0.2c0.4,0.4,0.3,1.2,0.1,1.7
		c-0.2,0.4-0.4,0.9-0.7,1.2c-0.2,0.2-0.5,0.4-0.8,0.4c-0.6-0.1-0.8-0.9-0.8-1.4C44,52.5,44,52.1,44,51.7c0-0.1,0-0.3,0-0.4
		c0-0.2,0-0.4,0-0.6c0-0.7-0.3-0.3-0.4,0c0,0.2-0.1,0.4-0.1,0.6c-0.2,0.8-0.1,1.9-1,2.1c-0.4,0.1-0.9,0-1.2-0.2
		c-0.4-0.4-0.6-0.9-0.6-1.5s0.6-0.9,1.1-1.1c0.2-0.1,0.5-0.2,0.6-0.4s0-0.4,0-0.5c-0.1-0.5,0-1,0.3-1.4c0.3-0.3,0.7-0.5,1.1-0.6
		c0.5-0.1,1,0,1.4,0.3c0.5,0.4,0.6,1,0.5,1.5C45.6,50.3,45.5,50.3,46.1,50.8 M50.4,47.5c-0.3,0-0.5-0.4-0.6-0.7
		c0-0.1-0.1-0.3-0.1-0.4c-0.2-0.7-0.4-1.4-0.5-2.2c-0.1-1-0.2-1.8-0.4-2.7c-0.1-0.2-0.1-0.3-0.2-0.3c-0.2,0-0.2,0.8-0.1,1.2
		c0,0.3,0,0.6,0,0.9c0,0.1,0,0.5-0.1,0.5l0,0l0,0c-0.1,0-0.3-0.3-0.3-0.4c-0.6-0.7-1.1-1.5-1.8-2.1c-0.1-0.1-0.7-0.6-0.8-0.4
		c-0.1,0.1,0.1,0.3,0.1,0.4c0.1,0.1,0.2,0.2,0.2,0.3c0.3,0.3,0.5,0.6,0.7,0.9c0.1,0.1,0.8,1,0.5,1.1c-0.1,0-0.6-0.1-0.8-0.1
		c-0.5-0.1-1-0.1-1.6,0c-0.1,0-0.2,0-0.2,0.1c0,0.2,0.7,0.2,0.8,0.2c1.5,0.1,2.7,0.9,3.5,2.1c0.3,0.4,0.9,1.6,0.2,1.9
		c-0.4,0.2-0.8,0.1-1.1-0.2c-0.2-0.2-0.4-0.4-0.6-0.6c-0.2-0.3-0.5-0.8-0.8-0.9c-0.4-0.2-0.7-0.3-1.2-0.3c-0.7,0-1.4-0.2-1.8-0.8
		c-0.1-0.2-0.2-0.3-0.3-0.5c-0.2-0.8-0.1-1.5,0.7-1.9c0.1,0,0.1-0.1,0.2-0.1c0.2-0.3-0.1-0.9-0.1-1.2c-0.1-0.2-0.1-0.4-0.1-0.6
		c-0.1-0.3,0-0.6,0.1-0.9c0.2-0.4,0.5-0.7,1-0.8s1.1,0,1.5,0.3c0.1,0.1,0.2,0.2,0.3,0.2c0.1,0.1,0.3,0.1,0.4,0.1c0.1,0,0.2,0,0.3,0
		s0.2-0.1,0.4-0.2c0.2-0.1,0.2-0.3,0.5-0.4c0.4-0.1,0.9,0.3,1.2,0.6c0.5,0.6,0.5,1,0.6,1.8c0,0.2,0.1,0.5,0.2,0.7
		c0.1,0.2,0.3,0.4,0.5,0.5c0.3,0.2,0.6,0.4,0.8,0.7c0.3,0.6,0.1,1-0.1,1.5c-0.1,0.2-0.2,0.5-0.3,0.8C51,46.1,51.2,47.4,50.4,47.5
		 M47.3,35.9c0.7-0.9,2.5,0.7,1.6,1.7l0,0l0,0c-0.5,0.3-1,0.4-1.5,0c-0.2-0.2-0.4-0.5-0.4-0.7C46.9,36.5,47.1,36.1,47.3,35.9
		 M51.5,32.4c0.7-0.3,1.8-0.4,2.3,0.3c0.2,0.3,0.3,0.7,0.1,1c-0.2,0.4-0.6,0.7-1,0.5c-0.1-0.1-0.5-0.2-0.7-0.1
		c-0.2,0.2,0.2,0.7,0.3,0.8c0.2,0.3,0.3,0.6,0.3,0.9c0.1,0.7-0.1,1.5-0.8,1.9c-0.2,0.1-0.5,0.2-0.8,0.1c-0.8-0.1-0.8-1-0.8-1.6
		c0-0.4-0.3-0.9-0.4-1.3c-0.1-0.2-0.1-0.4-0.1-0.6c0-0.4,0.1-0.7,0.3-1C50.5,33,51,32.6,51.5,32.4 M55.3,29c0.8-0.6,1.7-0.5,2.6-0.3
		c0.3,0.1,0.8,0.2,0.9-0.1c0,0,0-0.3,0-0.4c0.1-0.3,0.3-0.3,0.6-0.4c0.9-0.1,1.5,0.3,2,0.9c0.4,0.5,0.4,0.8,0.6,1.5
		c0.1,0.5,0.3,0.8,0.7,1c0.1,0.1,0.2,0.1,0.2,0.2c0.4,0.3,0.8,0.7,1,1.2c0.2,0.6,0.2,1.6-0.5,1.8s-1.4-0.5-1.7-1
		c-0.5-0.8-0.9-2-1.1-3c0-0.1-0.1-0.3-0.1-0.4l-0.1-0.1c-0.1,0-0.2,0.3-0.2,0.3c0,0.1,0,0.3,0,0.4c0,0.2,0,0.5,0,0.7
		c0,0.4-0.1,0.4-0.3,0.2c-0.4-0.3-0.9-0.7-1.4-1c-0.3-0.1-0.5-0.2-0.8-0.3c-0.1,0-0.5-0.1-0.6,0c0,0.1,0.1,0.3,0.2,0.3
		c0.4,0.2,0.8,0.5,1.2,0.7c0.3,0.2,0.6,0.4,0.8,0.7c0.1,0.2,0.2,0.4,0.1,0.6C59.2,33,58.5,33,58.1,33c-0.1,0-0.3,0-0.4,0
		c-0.3,0-0.6,0-0.9-0.1c-0.2,0-0.4,0-0.6-0.1c-0.2-0.1-0.5-0.2-0.5-0.5c0-0.2,0.2-0.4,0.4-0.4l0.2-0.1c0,0,0.1-0.1,0.1-0.2
		c-0.1-0.3-0.9-0.2-1.2-0.3c-0.2-0.1-0.4-0.2-0.6-0.3c-0.1-0.1-0.2-0.3-0.2-0.4C54.2,30.1,54.8,29.3,55.3,29 M64.8,26.8
		c0.2,0,0.4,0,0.6,0c0.1,0,0.3,0,0.4-0.1s0.2-0.2,0.3-0.4c0-0.1,0-0.2,0-0.3l0,0l0,0c0-0.1,0-0.2,0.1-0.3c0.1-0.2,0.2-0.4,0.4-0.6
		c0.4-0.3,1-0.2,1.5,0c0.7,0.3,1.3,0.9,1.7,1.6c0.3,0.5,0.6,1.1,0.6,1.7c0,0.4,0,1.1-0.2,1.5s-0.7,0.6-1.2,0.5
		c-0.7-0.1-1.1-0.6-1-1.3c0-0.2,0.1-0.5,0.1-0.8c0-0.1,0-0.3-0.1-0.3c-0.4-0.1-0.8,1.2-0.9,1.4c-0.4,0.7-0.9,0.1-1.1-0.4
		c-0.1-0.2-0.3-0.5-0.5-0.7c-0.1-0.1-0.1-0.1-0.2-0.2c0,0-0.1-0.1-0.2,0s0,0.4,0,0.5s0.1,0.3,0.1,0.4c0.2,0.6,0.7,1.9,0,2.3
		c-0.4,0.2-0.8,0.1-1.1-0.1c-0.3-0.2-0.5-0.6-0.4-0.9v-0.1c0.3-0.6-0.3-1-0.5-1.5C63.2,27.3,63.9,26.9,64.8,26.8 M71.2,24.2
		c0.1-0.1,0.3-0.1,0.4,0c0.4,0.1,0.6,0.6,0.7,1c0.1,0.5-0.1,1.1-0.7,1.3l0,0l0,0c-0.6,0-1.1-0.3-1.3-0.8c-0.1-0.3,0-0.6,0.1-0.8
		C70.6,24.5,70.9,24.3,71.2,24.2 M72.9,27.9c0.1-0.9,0.2-1.6,0.6-2.4c0.3-0.5,0.6-1,1.2-1.3s1.3-0.4,1.8-0.1
		c0.7,0.4,0.8,1.3,0.7,2.1c0,0.2,0,0.4,0,0.6c0,0.1,0,0.2,0.1,0.3c0.1,0.1,0.2,0.1,0.3,0.1c0.2,0,0.3,0.1,0.5,0.2
		c0.3,0.1,0.4,0.3,0.5,0.6c0.2,0.5,0.1,1.1-0.2,1.6c-0.4,0.8-0.9,1.2-1.5,1.7c-0.2,0.1-0.3,0.3-0.4,0.4c-0.2,0.2-0.4,0.5-0.5,0.8
		c-0.1,0.2-0.4,0.7-0.7,0.8c-0.3,0-0.5-0.1-0.6-0.3c-0.2-0.6,0-1.3,0.3-1.9s0.7-1.2,1.3-1.6c0.1-0.1,0.2-0.1,0.3-0.2
		c0.1-0.1,0.2-0.2,0.1-0.3c-0.2-0.3-1.1,0.4-1.3,0.6c-0.1,0-0.2,0.2-0.3,0c-0.1-0.1,0.1-1.2,0.1-1.4c0-0.3,0-0.7,0-1
		c0-0.1-0.1-0.3-0.2-0.3s-0.2,0.3-0.2,0.4c-0.3,1.3-0.5,2.6-1,3.9c0,0.1-0.1,0.2-0.1,0.3c-0.1,0.3-0.3,0.5-0.6,0.6
		c-0.4,0.1-0.7-0.2-0.9-0.5c-0.3-0.4-0.4-0.9-0.3-1.4c0-0.3,0.1-0.7,0.5-0.8C72.8,28.9,72.9,28.3,72.9,27.9 M79.5,33
		c0.1,0,0.4-0.3,0.5-0.4c0.5-0.5,1-0.7,1.7-0.5c0.2,0.1,0.4,0.2,0.6,0.3s0.3,0.3,0.4,0.5c0.3,0.4,0.2,1.1,0.1,1.6
		c-0.1,0.3-0.2,0.5-0.3,0.8c-0.2,0.6-0.3,0.7,0.2,1.2c0.1,0.1,0.2,0.3,0.3,0.5c0.2,0.8-0.4,1.7-1.1,2.1c-0.3,0.2-0.6,0.2-0.9,0.2
		s-0.5,0-0.8,0s-0.5,0-0.8,0.1s-0.5,0.3-0.7,0.4c-0.5,0.3-0.8,0.5-1.3,0.6c-0.4,0.1-0.8,0.1-1.1,0c-0.2-0.1-0.5-0.2-0.6-0.5
		c-0.2-0.5,0.3-0.9,0.6-1.2l0.1-0.1c0.1,0,0.1-0.1,0.2-0.1c1.1-0.6,2.6-0.9,3.8-0.9c0.1,0,0.5,0,0.5-0.2v-0.1
		c-0.1-0.1-0.2-0.1-0.3-0.1C80,37.1,79.7,37,79.3,37c-0.4,0-0.4-0.1-0.1-0.3c0.2-0.2,0.5-0.4,0.7-0.6c0.2-0.2,0.5-0.4,0.7-0.7
		c0.1-0.1,0.1-0.2,0.2-0.3c0.4-0.6,0.2-0.9-0.5-0.2c-0.3,0.2-0.5,0.5-0.8,0.7c-0.2,0.2-0.4,0.4-0.7,0.5c-0.2,0.2-0.5,0.3-0.7,0.5
		c-0.3,0.2-0.9,0.4-1.1,0c-0.2-0.6,0-1.4,0.2-2s0.5-1.2,0.9-1.6c0.2-0.2,0.5-0.2,0.7-0.2c0.1,0,0.2,0.1,0.3,0.2
		C79.2,33,79.4,33.1,79.5,33 M79.8,28.9c0.1-0.3,0.3-0.5,0.6-0.6c0.4-0.3,0.8-0.4,1.2-0.4c0.4,0,0.8,0,1.2,0.2
		c0.4,0.2,0.8,0.5,1.1,0.8c0.2,0.3,0.4,0.6,0.4,1c0.1,0.4,0,0.7-0.1,1c0,0.1-0.1,0.2-0.2,0.2c-0.2,0.3-0.7,0.6-1.1,0.6
		c-0.2,0-0.5-0.1-0.8-0.2c-0.5-0.3-0.3-0.7-0.2-1.2c0-0.2,0-0.3-0.1-0.4c-0.2-0.1-0.4,0.2-0.6,0.4c-0.3,0.3-0.6,0.6-1,0.6
		c-0.2,0-0.4-0.1-0.5-0.2C79.2,30.1,79.4,29.5,79.8,28.9 M85.9,29.8c0.3-0.2,0.6-0.4,1-0.5c0.8-0.1,1.5,0.1,1.9,0.6
		c0.8,0.9,0.7,1.8,0.4,2.9c-0.1,0.4-0.1,0.7,0.5,0.8c0.3,0,0.4,0.3,0.5,0.8c0,1.7-1.3,2.4-2.6,3c-0.5,0.2-0.8,0.4-1.6,1
		c-0.1,0.1-0.3,0.2-0.4,0.2c-0.2,0.1-0.5,0.1-0.7-0.1c-0.3-0.2-0.5-0.7-0.4-1.1c0-0.7,0.7-1.1,1.3-1.3c0.2,0,0.4-0.1,0.6-0.1
		c0.3,0,1.4-0.2,1.8-0.5s0.1-0.4-0.3-0.4s-1.2,0.3-1.4,0.1c-0.3-0.2-0.1-0.4,0-0.7c0.2-0.3,0.3-0.6,0.4-0.8s0.2-0.4,0.3-0.6
		c0-0.1,0.3-0.9,0.1-1.2c0-0.1-0.1-0.1-0.2,0c-0.1,0.1-0.2,0.3-0.4,0.6c-0.1,0.2-0.3,0.5-0.4,0.8c-0.6,1.1-1.6,1.6-1.6-0.1
		C84.6,32.2,84.9,30.7,85.9,29.8 M92,36.3c0.2,0.1,0.3,0.2,0.4,0.3s0.1,0.2,0.2,0.2c0.2,0.1,0.6-0.2,0.7-0.3c0.9-0.7,2-0.3,2.7,0.5
		c0.5,0.6,0.7,1.3,0.3,2c-0.1,0.2-0.2,0.3-0.1,0.5s0.3,0.4,0.4,0.5c0.3,0.4,0.3,1.1-0.1,1.5c-0.8,0.7-1.7,0.5-2.7,0
		c-0.8-0.4-1.4-0.9-1-1.6c0.3-0.5,1-0.7,1.4-1.1c0.3-0.4,0.1-0.5-0.9-0.1c-0.2,0.1-0.4,0.2-0.6,0.4c-0.3,0.2-0.5,0.3-0.7,0.5
		c-0.1,0.1-0.2,0.2-0.4,0.1c-0.1,0-0.1-0.1-0.1-0.2c0-0.1,0-0.2,0-0.3c0-0.2,0-0.3,0-0.5c0-0.1,0-0.9-0.3-0.9
		c-0.1,0-0.1,0.1-0.1,0.2c-0.1,0.6-0.2,0.9-0.4,1.5c-0.3,0.6-0.8,1.1-1.5,1c-0.1,0-0.2-0.1-0.3-0.1c-0.3-0.3-0.2-1-0.1-1.4
		s0.3-0.8,0.4-1.2C89.8,37,91.1,35.8,92,36.3 M96.9,43.3c0.1,0,0.3,0.1,0.4,0.1c0.3,0,0.6-0.2,0.8-0.5c0.1-0.2,0.3-0.3,0.4-0.4
		c0.2-0.2,0.5-0.4,0.8-0.4c0.4,0,0.7,0.1,1,0.4c0.3,0.4,0.4,0.9,0.4,1.3c0,0.1,0,0.3,0,0.4c0,0.2,0.1,0.4,0.2,0.5s0.2,0.2,0.3,0.2
		c0.6,0.3,0.9,0.8,0.6,1.4c-0.1,0.4-0.3,0.7-0.6,1c-0.2,0.2-0.5,0.4-0.7,0.7c-0.1,0.1-0.3,0.3-0.3,0.5c-0.1,0.2-0.1,0.3-0.1,0.5
		c0,0.6-0.1,1-0.6,1.3c-0.2,0.2-0.5,0.3-0.8,0.4c-0.4,0.1-0.8,0.2-1.2,0.5c0,0-0.1,0-0.1,0.1c-0.3,0.1-0.7,0.4-1,0.1v-0.1
		c-0.1-0.2,0.1-0.5,0.2-0.6s0.1-0.2,0.2-0.3c0.5-0.6,0.7-1,1.3-1.4c0.4-0.4,0.8-0.7,1.2-1.1c0.1-0.1,0.2-0.2,0.3-0.4
		c0.4-0.5,0.4-0.9-0.3-0.4c-0.1,0.1-0.1,0.1-0.2,0.2c-0.1,0.1-0.3,0.2-0.4,0.3c-0.3,0.2-0.7,0.4-0.4-0.5c0.1-0.2,0.5-1.1,0.8-2
		c0.3-0.8,0-1.7-0.5-0.3c-0.2,0.7-0.7,2-1,2l0,0c-0.1-0.1-0.2-0.6-0.3-0.7c-0.1-0.3-0.2-0.6-0.4-0.8c-0.4-0.6-0.7-0.4-0.4,0.3
		c0.8,1.9,0.3,3.6-0.9,5.1c-0.1,0.2-0.3,0.3-0.5,0.3s-0.4-0.2-0.4-0.4c-0.1-0.4,0.1-0.8,0.2-1.2c0.3-0.6,0.4-1.2,0.3-1.9
		c-0.1-0.5-0.2-1.1-0.3-1.6C94.9,44.7,95.5,42.9,96.9,43.3 M104,54.3c0.3,0.3,0.6,0.8,0.6,1.3c0,0.7-0.4,1.2-0.9,1.5s-1,0.4-1.6,0.5
		c-0.2,0-0.8,0-0.9,0.3c-0.1,0.1-0.1,0.3-0.1,0.4c0.1,0.6-0.5,0.8-1,0.9c-0.9,0.2-2.9-0.5-3.6-1.2c-0.2-0.2-0.3-0.3-0.2-0.6
		c0.1-0.3,0.6-0.4,0.9-0.3c0.5,0.1,1.1,0.4,1.6,0.5c0.2,0,0.4,0.1,0.4,0c0.1-0.4-1.2-0.8-1.4-0.9c-0.3-0.2-0.5-0.4-0.2-0.6
		c0.3-0.3,1.3-0.4,1.5-0.4c1.1-0.1,2-0.2,3.2-0.1h0.1c0.5,0.1,0.4-0.2,0.1-0.4c-0.8-0.4-2.3-0.2-2.9-0.2h-0.1
		c-0.2-0.2,0.5-0.9,0.6-1.2c0,0,0.1-0.1,0-0.2c0-0.1-0.1-0.1-0.2-0.1c-0.3,0.1-0.9,0.8-1.1,1c-0.6,0.5-1.2,0.7-1.9,1
		c-3.1,1.3-3.2-0.7-0.3-1.5c0.2-0.1,0.4-0.2,0.5-0.3c0.2-0.1,0.4-0.3,0.6-0.5c0.3-0.3,0.5-0.6,0.7-0.8c0.5-0.4,1-0.7,1.8-0.8
		c0.4,0,1.1,0.1,1.4,0.5c0.2,0.3,0.2,0.6,0.1,0.9c-0.1,0.2,0.2,0.3,0.3,0.3c0.2,0,0.4,0.1,0.6,0.1C103.1,53.6,103.6,53.9,104,54.3
		 M103.7,47.1c0.4,0.3,0.3,0.9,0.1,1.3c-0.4,0.8-1.5,1-1.9,0c-0.1-0.2-0.1-0.5,0-0.7c0.1-0.3,0.4-0.5,0.6-0.6
		C102.9,46.9,103.4,46.8,103.7,47.1 M107.5,48.6c0.6,0.6,0.6,1.1,0.5,1.6c-0.1,1.4,0.2,0.9,1.3,1.7c0.7,0.6,1,1.6,0.5,2.5
		c-0.1,0.2-0.3,0.4-0.5,0.6c-0.5,0.5-1.2,0.7-1.9,0.6c-0.8-0.1-1.5-0.6-2-1.3c0-0.1-0.1-0.1-0.1-0.2c-0.1-0.2-0.3-0.6,0-0.8
		c0.5-0.2,1.4,0.2,1.9,0.4c0.1,0,0.6,0.4,0.6,0.1c0-0.2-0.2-0.4-0.3-0.5c-0.6-0.5-1.2-0.6-2-0.9c-0.2-0.1-0.8-0.2-0.8-0.5
		c0-0.1,0.2-0.3,0.3-0.3c0.1,0,0.1-0.1,0.2-0.1c0.3-0.1,1.5-0.8,1.3-1.2c0-0.1-0.2,0-0.3,0c-0.2,0.1-0.4,0.2-0.7,0.3
		c-0.3,0.1-0.6,0.3-0.9,0.4c-0.1,0.1-0.3,0.1-0.4,0.1c-0.5,0.2-1.2,0.3-1.5-0.3c-0.1-0.3,0-0.6,0.2-0.8c0-0.1,0.1-0.1,0.1-0.2
		c0.1-0.1,0.2-0.2,0.3-0.3C104.2,48.8,106.3,47.5,107.5,48.6 M112.6,51.9c0.2,0.4,0.3,0.9,0.2,1.6c0,0.2-0.1,0.4-0.1,0.6
		c-0.1,0.3-0.2,0.6-0.5,0.8c-0.9,0.8-1.4-0.1-1.4-0.9c0-0.4,0-0.8,0.3-0.8c0.1,0,0.3,0,0.5,0.1c0.5,0.1,0.3-0.2,0-0.4
		c-0.6-0.4-0.9-0.4-1.4-0.9c-0.1-0.1-0.2-0.2-0.3-0.3c-0.1-0.2-0.2-0.4-0.2-0.6c0-0.5,0.3-0.7,0.8-0.7
		C111.4,50.3,112.1,50.9,112.6,51.9 M97.9,62.2c-0.8-1.2,0.5-2.4,1.7-1.5c0.1,0.1,0.2,0.2,0.2,0.4c0.1,0.4-0.2,0.8-0.5,1.1
		C98.9,62.5,98.3,62.6,97.9,62.2L97.9,62.2L97.9,62.2z M95.8,71.8c0.1,0,0.1,0,0.2,0c1.3,0.3,2.3,1.6,1.3,2.7
		c-0.3,0.4-0.8,0.6-1.4,0.6c-0.2,0-0.4,0-0.5,0c-0.2,0-0.5,0-0.7-0.1c-0.3-0.1-0.5-0.1-0.8-0.2c-0.2-0.1-0.4-0.1-0.7-0.1
		c-0.3,0-0.4,0.2-0.6,0.5c-0.2,0.4-1,0.2-1.3,0.1c-0.5-0.2-1.1-0.5-1.4-0.9c-0.4-0.4,0-0.7,0.5-0.8c0.7-0.2,1.5-0.3,2.2-0.3
		s1.3,0.1,2,0.3h0.1c0.1,0,0.1,0,0.2,0.1c0.1,0,0.1,0,0.2,0c0.3,0,0.3-0.2,0.1-0.4c-0.3-0.3-0.9-0.4-1.3-0.4c-0.1,0-0.2,0-0.3,0
		c-0.3,0-0.4-0.1-0.3-0.3c0.1-0.2,0.7-0.7,0.7-0.9c0-0.1-0.1-0.2-0.3-0.1c-0.2,0.1-0.4,0.2-0.6,0.4c-0.4,0.3-0.9,0.6-1.5,0.6
		c-0.3,0-0.4,0-0.3-0.3c0.1-0.2,0.6-1,0.3-1.1c-0.1,0-0.1,0-0.3,0.2c-0.3,0.5-0.6,0.9-1.1,1.3c-0.3,0.2-0.6,0.3-0.8,0.1
		c-0.2-0.1-0.2-0.3-0.1-0.6c0.4-0.8,1.4-2.3,2.4-2.3c0.7,0,0.6,0.4,0.8,0.4c0.1,0,0.1,0,0.2,0c0.3,0,0.6-0.2,1.3-0.3
		c0.5-0.1,0.9,0,1.2,0.2c0.2,0.2,0.3,0.3,0.3,0.6c0,0.2,0,0.3,0,0.5c0,0.1,0,0.2,0,0.3C95.6,71.7,95.7,71.8,95.8,71.8 M83.3,63.6
		c-0.1,0-0.2-0.1-0.3-0.1c-0.2-0.1-0.3-0.2-0.5-0.3c-0.1,0-0.2-0.1-0.3-0.1c-0.1,0-0.2,0-0.3,0.1c-0.7,0.4-1.4,1-2.3,1
		s-1.6-0.5-1.8-1.3c-0.1-0.4-0.1-0.8,0.2-1.2c0.1-0.2,0.3-0.4,0.5-0.5c0.1-0.1,0.5-0.3,0.5-0.5c0-0.1,0-0.2-0.1-0.2
		c-0.1-0.1-0.1-0.2-0.2-0.2c-0.1-0.1-0.2-0.2-0.2-0.4c-0.1-0.2-0.1-0.3-0.1-0.5c0-0.5,0.4-0.9,1-0.9c0.2,0,0.4,0,0.6,0
		c1,0.2,1.3,0.7,2.4,0.2c0.5-0.2,1.2-0.5,1.7-0.1c0.3,0.3,0.2,0.7-0.1,0.9c-0.8,0.7-2.4,0.5-3.4,0.5c-0.1,0-0.6,0-0.6,0.1
		s0.1,0.1,0.2,0.1s0.2,0.1,0.3,0.1c0.2,0,1.1,0.2,1.2,0.3s0,0.2-0.1,0.2s-0.1,0.1-0.2,0.2c-0.2,0.1-0.4,0.3-0.5,0.5
		c-0.3,0.3-0.7,0.6-0.8,1v0.1c0.2,0.2,0.5-0.1,0.7-0.2c0.3-0.3,0.7-0.7,1.1-0.9c0.4-0.3,0.9-0.5,1.3-0.7c0.2-0.1,0.4-0.2,0.6,0
		s0.1,0.8,0.1,1s0.1,0.8,0.3,0.8c0.1,0,0.2-0.2,0.2-0.3c0-0.2,0.1-0.3,0.1-0.5c0-0.5,0.2-1.2,0.4-1.7c0.1-0.2,0.4-0.8,0.7-0.7
		c0.4,0.1,0.4,1.1,0.4,1.4c0,0.8-0.2,1.5-0.6,2.2c-0.1,0.1-0.1,0.2-0.2,0.3s-0.2,0.2-0.4,0.3C84.2,63.8,83.8,63.8,83.3,63.6
		 M78.3,47c0.3-0.2,0.9-0.3,1.2,0c0.2,0.3,0.2,0.8,0,1.1c-0.1,0.2-0.2,0.4-0.4,0.6c-0.2,0.1-0.5,0.2-0.7,0.1
		C77.5,48.5,77.7,47.5,78.3,47 M86.8,59.5c0.2-0.6,1.2-0.3,1.7-0.2c1.5,0.3,1.8,0.5,2.5,1.5c0.1,0.2,0.6,1.1,0.7,1
		c0.2,0-0.2-1-0.2-1.2c0-0.1-0.1-0.5,0-0.6s0.5,0.1,0.6,0.1c0.4,0.2,0.8,0.3,1.1,0.5c0.1,0,1.1,0.5,1.2,0.3c0-0.1-0.8-0.6-0.9-0.7
		c-0.2-0.1-0.5-0.2-0.7-0.3c0,0-0.1,0-0.2-0.1c-0.2-0.1-0.4-0.3,0-0.5c0.1-0.1,0.3-0.1,0.4-0.2c0.1-0.1,0.6-0.4,0.6-0.5
		c-0.1-0.1-0.6,0.1-0.7,0.2c-0.6,0.3-1,0.5-1.7,0.4c-0.2,0-0.5-0.1-0.7-0.2c-0.3-0.1-0.4-0.2-0.1-0.5c0.2-0.2,0.3-0.3,0.4-0.6
		c0.2-0.3,0.4-0.6,0.3-0.7c-0.1-0.1-0.6,0.4-0.8,0.5c-0.2,0.2-0.4,0.4-0.6,0.5c-0.4,0.3-1.1,0.4-1.6,0.3c-0.1,0-0.3,0-0.4,0
		c-0.2-0.1-0.3-0.1-0.3-0.4c0-0.4,0.7-0.7,1-0.8c0.2-0.1,0.4-0.2,0.6-0.3c0.8-0.5,1.6-1.4,2.6-0.7c0.2,0.1,0.4,0.3,0.6,0.5
		c0.2,0.3,0.5,0.4,0.8,0.5c0.5,0,1.5,0,1.9,0.4c0.3,0.3,0.3,0.8,0.2,1.1c0,0.2,0.1,0.3,0.3,0.4c0.1,0.1,0.3,0.3,0.5,0.4
		c0.3,0.3,0.6,0.7,0.7,1.2c0.1,0.7-0.2,1.5-0.8,1.8c-0.5,0.3-1.1,0.3-1.7,0c-0.1-0.1-0.2-0.1-0.4-0.1c-0.3-0.1-0.6-0.1-0.8,0.2
		c-0.5,0.6-1.1,0.5-1.7,0.2c-0.2-0.1-0.3-0.2-0.4-0.3c-0.4-0.3-0.6-0.6-0.9-1c-0.2-0.4-0.5-0.7-0.9-0.9c-0.2-0.2-0.5-0.3-0.7-0.4
		c-0.2-0.1-0.5-0.2-0.7-0.3C87.2,60.2,86.7,59.9,86.8,59.5 M87.4,52.2c0.1-0.1,0.1-0.3,0.2-0.7c0.1-0.5,0.6-1,1.1-1.1
		c0.2,0,0.3-0.1,0.5,0c0.2,0,0.4,0.1,0.5,0.2c0.1,0,0.2,0.1,0.3,0.2c0.1,0.1,0.3,0,0.4,0s0.2-0.1,0.3-0.1c0.9-0.4,1.9-0.7,2.7,0
		c0.2,0.2,0.3,0.4,0.4,0.7c0.1,0.6-0.2,1-0.6,1.4c-0.1,0-0.1,0.1-0.2,0.2c-0.5,0.5,0.1,0.5,0.3,1c0.1,0.1,0.1,0.3,0,0.5
		c-0.1,0.5-0.8,0.9-1.3,0.8c-0.4-0.1-0.7-0.2-1-0.2c-0.9-0.1-1.7,0.5-2,0.1c-0.1-0.1,0-0.3,0.1-0.5c0.5-0.9,1.5-1.3,2.3-1.9
		c0.1-0.1,0.4-0.3,0.3-0.5c0-0.1-0.1-0.1-0.2-0.1c-0.7,0-1.5,0.7-2.1,1.1c-0.1,0-0.1,0.1-0.2,0.1c-0.5,0.3-0.1-1.1-0.2-1.4l-0.1-0.1
		c-0.1,0-0.3,0.4-0.3,0.5c-0.1,0.2-0.1,0.4-0.1,0.6c-0.2,0.9-0.2,1.9-1,2.5c-0.2,0.1-0.4,0.2-0.6,0.2c-0.1,0-0.3,0-0.4-0.1
		c-0.2-0.2-0.3-0.4-0.3-0.6c-0.1-0.9,0.5-1.6,1.1-2.3C87.2,52.4,87.3,52.3,87.4,52.2 M86.4,57c0.1,0.4-0.2,0.9-0.6,1.1
		c-0.8,0.4-1.7-0.1-1.5-1c0.1-0.2,0.2-0.4,0.4-0.6c0.2-0.1,0.6-0.2,0.8-0.1C85.8,56.4,86.3,56.6,86.4,57 M84.2,51.7
		c-0.1-0.1-0.3,0.2-0.3,0.2c-0.3,0.3-0.6,0.7-0.9,1c-0.1,0.1-0.3,0.3-0.4,0.3s-0.1-0.7-0.1-0.8c0-0.8,0.1-1.4,0.1-2.2
		c0-0.7,0-1.1-0.3-1.1c-0.1,0-0.2,0.3-0.3,1.2c0,0.1,0,0.3,0,0.4c0,0.3,0,0.5-0.1,0.8c0,0.3-0.1,0.6-0.1,0.8c0,0.1-0.1,0.4-0.2,0.4
		s-0.3-0.3-0.4-0.4c-0.3-0.4-0.5-0.7-0.9-0.9c-0.1,0-0.2-0.1-0.3,0c-0.1,0.1,0.2,0.5,0.3,0.6c0.1,0.1,0.3,0.3,0.4,0.4
		c0.6,0.7,0.8,1.5,0.7,2.5c0,0.2,0,0.3,0,0.5s0,0.3-0.1,0.5s-0.2,0.5-0.4,0.7c-0.1,0.1-0.3,0.2-0.5,0.2c-0.4,0-0.4-0.7-0.4-1
		c0-0.2,0-0.4,0-0.5c0.1-0.8-0.1-1.3-0.5-2c-0.1-0.1-0.2-0.2-0.2-0.3c-0.7-1-1.6-2.8,0.2-3.3c0.1,0,0.3-0.1,0.4-0.1s0.3,0,0.4,0
		c0.3,0,0.5-0.3,0.6-0.5c0.1-0.3,0.2-0.5,0.4-0.8c0.3-0.4,0.7-0.8,1.2-0.8c0.7-0.1,1.2,0.5,1.3,1.1c0,0.1,0.1,0.2,0.1,0.4
		c0.1,0.2,0.2,0.3,0.4,0.4c0.1,0,0.3,0,0.4,0.1c0.2,0,0.3,0.1,0.5,0.1c0.9,0.5,0.6,1.9,0.2,2.6c-0.3,0.4-0.6,0.8-0.7,1.3
		c0,0.2,0,0.5,0.1,0.7c0.3,1.2-1.2,1.7-1.8,2.5c-0.1,0.2-0.3,0.3-0.5,0.4c-0.1,0.1-0.3,0.1-0.4,0C81.9,57,82,56.6,82,56.4
		c0-0.1,0.1-0.2,0.1-0.3c0.3-0.7,0.6-1.2,1-1.8s0.8-1.1,1.1-1.8C84.2,52.3,84.4,51.8,84.2,51.7 M91.8,47.1c-0.1-0.2-0.4-0.4-0.6-0.5
		s-0.4-0.3-0.6-0.4c0,0-0.1-0.1-0.1-0.2c0-0.1,0.2-0.3,0.3-0.3c0.3-0.2,0.6-0.4,0.9-0.7c0.1-0.1,0.5-0.6,0.4-0.7
		c-0.1-0.2-0.6,0.1-0.7,0.2c-0.3,0.2-0.6,0.4-0.9,0.6c-0.4,0.2-0.8,0.4-1.2,0c-0.4-0.4-0.3-1.5-0.1-2c0.2-0.6,1-1.9,1.7-1.2
		c0.2,0.2,0.3,0.5,0.6,0.6c0.2,0,0.3,0,0.5,0c0.3-0.1,0.6-0.2,0.9-0.1c0.5,0.1,0.8,0.5,1,0.9c0.4,0.6,0.4,1.7-0.2,2.2
		c-0.2,0.2-0.4,0.3-0.5,0.5c-0.3,0.6,0.1,0.7,0.2,1.3c0,0.1,0,0.2,0,0.3c0,0.8-0.8,1.2-1.7,1.2c-0.4,0-0.8-0.1-1.2-0.1
		c-0.7-0.1-1.1,1.5-3.7,0.2c-0.2-0.1-0.7-0.4-0.7-0.7c0.1-0.3,0.4-0.3,0.7-0.4c0.4,0,0.8,0.1,1.2,0.2c0.1,0,0.2,0.1,0.3,0.1
		c0.1,0,0.3,0.1,0.3,0s0-0.2,0-0.2c-0.1-0.1-0.2-0.2-0.3-0.3c-0.1-0.1-0.3-0.2-0.4-0.3c-0.2-0.2-0.1-0.3,0.1-0.4
		c1.1-0.4,2.4,0.2,3.5,0.6c0.1,0,0.2,0.1,0.3,0C91.9,47.2,91.8,47.1,91.8,47.1 M85.9,41c0.4,0,0.7,0,1.1,0.2
		c0.7,0.3,1.2,0.9,1.1,1.7c0,0.5-0.4,0.9-0.8,1.1c-0.1,0.1-0.3,0.1-0.4,0.2c-0.1,0-0.2,0.1-0.3,0.1c-0.6,0.4-0.2,0.6,0.1,1
		c0,0.1,0.1,0.1,0.1,0.2c0,0.1,0,0.3,0,0.4c-0.2,0.7-1.5,1-2.1,1c-0.6-0.1-1.1-0.3-1.6-0.5c-0.4-0.2-0.9-0.3-1.3-0.4
		c-0.3,0-0.6,0-0.9,0s-1,0-1.2-0.1s-0.2-0.3-0.1-0.5s0.5-0.5,0.8-0.6c0.4-0.1,0.7-0.2,1.1-0.2c0.7,0,1.5,0.1,2.2,0.3
		c0.2,0.1,0.4,0.2,0.6,0.3c0.1,0.1,0.5,0.3,0.6,0.2s0-0.2-0.1-0.3l0,0c-0.3-0.4-0.8-0.7-1.2-0.8c-0.1-0.1-0.4-0.2-0.5-0.3l0,0
		c0-0.2,0.6-0.4,0.7-0.4c0.4-0.1,0.7-0.2,1.1-0.2c0.3-0.1,0.7-0.1,1-0.1c0.1,0,0.3-0.1,0.3-0.2c0-0.1-0.2-0.2-0.3-0.2
		c-1-0.2-2,0.1-2.8,0.4c-0.2,0.1-0.4,0.1-0.6,0.2c-0.1,0-0.3,0-0.4,0c-0.2-0.1,0.1-0.4,0.2-0.4c0.3-0.4,0.6-0.7,1-1
		c0.1-0.1,0.3-0.3,0.2-0.4c0-0.1-0.1-0.1-0.2-0.1s-0.3,0.1-0.4,0.2c-0.6,0.4-1,0.8-1.4,1.3c-0.2,0.3-0.5,0.6-0.7,0.8
		s-0.5,0.4-0.8,0.6c-0.3,0.2-0.6,0.3-0.9,0.3c-0.5,0-0.6-0.4-0.7-0.8c-0.2-1.1,2.2-3.4,2.8-2.6c0,0.1,0.1,0.1,0.2,0.1h0.1
		c0.1,0,0.2,0,0.3-0.1c0.1-0.1,0.2-0.1,0.3-0.2c0.7-0.6,1.6-1.4,2.5-1.5c0.3,0,0.7,0.1,0.9,0.3c0.2,0.2,0.2,0.5,0.1,0.7
		C85.2,40.9,85.7,41,85.9,41 M66.6,53.1c-0.3,0-0.6,0-0.9,0.1c-0.1,0-0.1,0-0.2,0s-0.5,0-0.6-0.1c-0.1-0.2,0.3-0.6,0.5-0.7
		c0.3-0.2,0.5-0.4,0.8-0.5c0.4-0.2,0.8-0.4,1.3-0.5c0.1,0,0.6-0.2,0.5-0.4c0-0.2-0.4-0.2-0.6-0.2s-1.1,0.4-1.3,0.3c0,0,0,0,0-0.1
		c0-0.3,0.1-0.7,0.1-1c0-0.1-0.1-0.2-0.2-0.2s-0.1,0.1-0.1,0.2c-0.2,0.8-0.3,1.4-1,2c-0.3,0.3-0.6,0.6-0.9,0.9
		c-0.4,0.5-0.7,1-1.1,1.4c-0.1,0.1-0.4,0.3-0.5,0.3c-0.7-0.1-0.2-2.3-0.1-2.7c0.1-0.3,0.3-0.6,0.7-0.6c0.1,0,0.3,0,0.4,0.1h0.1
		c0.2,0,0.3,0,0.4-0.1c0.2-0.2,0.4-0.6,0.5-0.8c0.1-0.3,0.2-0.6,0.3-0.8c0.2-0.5,0.5-0.9,1-1.1c0.4-0.2,0.9-0.3,1.3,0
		c0.1,0.1,0.2,0.2,0.3,0.3c0.1,0.1,0.2,0.2,0.3,0.2c0.1,0.1,0.3,0.1,0.4,0.1c0.3,0,0.5,0,0.8,0.1c0.4,0.1,0.6,0.3,0.9,0.5
		c0.1,0.1,0.2,0.3,0.3,0.5c0.3,0.8-0.1,1.5-0.8,2c-0.3,0.2-0.8,0.6-0.7,1.1c0,0.2,0.1,0.3,0.2,0.5c0.4,0.9-0.6,1.4-1.4,1.1
		c-0.4-0.1-0.8-0.2-1.2-0.2c-0.4,0-0.9,0.2-1.3,0.2c-0.2,0-0.5,0-0.7-0.2c-0.2-0.2,0-0.5,0.1-0.6c0.5-0.5,1.1-0.5,1.8-0.6
		c0.2,0,0.4-0.1,0.6-0.1c0.1,0,0.4-0.1,0.4-0.2C67,53.1,66.7,53.1,66.6,53.1 M60.9,58.9c0.6,0,1.2,0.4,1.3,1c0.1,0.7-0.4,1.2-1,1.4
		c-0.2,0-0.3,0-0.5,0c-0.4-0.2-0.6-0.7-0.6-1.1C60.1,59.6,60.3,59,60.9,58.9L60.9,58.9L60.9,58.9z M58.5,58.2
		c-0.1-0.4-0.1-0.9-0.1-1.1c-0.1-1.6,0.2-2.5,1-3.8c0.1-0.1,0.3-0.6,0.2-0.6c-0.1-0.1-0.5,0.3-0.5,0.4c-0.5,0.5-0.7,1.1-1.1,1.7
		c0,0,0,0-0.1,0.1c-0.1,0-0.2-0.5-0.3-0.6c-0.3-1.4-0.1-2.5-0.3-3.8c0-0.1-0.1-0.2-0.1-0.3c-0.1,0-0.2,0.2-0.3,0.4
		c-0.2,0.7-0.1,1.5-0.1,2.2c0,0.1,0.1,0.5,0,0.5s-0.2,0-0.2-0.1c-0.2-0.2-0.5-0.4-0.7-0.6c-0.2-0.2-0.6-0.5-0.8-0.5
		c-0.1,0-0.2,0-0.2,0c-0.1,0.2,0.4,0.6,0.5,0.7c1.4,1.2,1.7,2.3,2.1,4c0.1,0.4,0.2,0.8,0.2,1.2c0,0.3-0.1,0.5-0.3,0.5
		c-1.1,0.1-2.8-1.6-2.6-2.5c0.1-0.6,0.8-0.9,0.4-1.5c-0.1-0.2-0.3-0.4-0.4-0.6c-0.2-0.3-0.4-0.5-0.5-0.8c-0.1-0.2-0.2-0.4-0.3-0.7
		c-0.2-0.5-0.2-1,0.2-1.3c0.6-0.4,0.9,0.3,1.1-0.7c0-0.1,0-0.2,0.1-0.2c0.7-2,1.7-2.3,2.6-1.6c0.4,0.3,0.8,0.8,1,1.5
		c0.1,0.3,0.3,0.6,0.7,0.5c0.6-0.2,1.2-0.1,1.2,1c0,0.6-0.3,1.3-0.4,1.6c-0.1,0.3-0.3,0.7-0.2,0.9c0,0.1,0.1,0.2,0.3,0.2
		c0.3,0.1,0.5,0.3,0.6,0.6c0.1,0.4,0.1,0.7,0,1c-0.2,0.6-0.8,0.9-1.2,1.5c-0.1,0.2-0.2,0.5-0.3,0.7C59.3,58.8,58.7,59.6,58.5,58.2
		 M47.7,57.7c-0.9,0.6-1.8,0.2-1.9-0.9c0-0.4,0-0.9,0.5-1.1c0.4-0.2,1,0.1,1.3,0.4C48,56.5,48,57.1,47.7,57.7L47.7,57.7L47.7,57.7z
		 M52.6,50.4c0.1,0.4,0.1,0.7,0.1,1.1c0,0.3-0.1,0.6,0,0.9c0,0.3,0.1,0.5,0.2,0.8c0,0.1,0.1,0.2,0.2,0.3c0.1,0.1,0.2,0.3,0.2,0.5
		c0.1,0.2,0.1,0.4,0.1,0.6c0,0.2-0.1,0.4-0.3,0.5c-0.5,0.1-0.9-0.2-1.1-0.6c-0.2-0.3-0.3-0.7-0.4-1c-0.1-0.2-0.1-0.5-0.1-0.8
		s0-0.6,0-0.9c0-0.1,0-0.2-0.1-0.2s-0.2,0.3-0.2,0.4c0,0.2-0.1,0.7-0.3,0.8c-0.1,0.1-0.4-0.1-0.5-0.2c-0.1-0.1-0.1-0.1-0.2-0.2
		c-0.2-0.1-0.3-0.2-0.5-0.3c-0.1,0-0.5-0.2-0.6-0.1c-0.1,0.1,0.3,0.5,0.4,0.5c0.7,0.6,2.1,2.3,2.4,3.1c0.1,0.3-0.1,0.3-0.3,0.3
		L50.8,56c-0.1,0-0.3,0-0.4,0.2c0,0.2,0.5,0.2,0.6,0.3c0.6,0.1,1,0.2,1.6,0.4c0.1,0.1,0.2,0.1,0.4,0.2c0.5,0.3,0.7,0.6,0,0.9
		c-0.5,0.2-1.1,0.2-1.6,0.1c-0.6-0.1-1.2-0.4-1.6-0.9c-0.3-0.3-0.6-0.7-0.5-1.1c0-0.1,0-0.1,0.1-0.2c0.2-0.2,0.4-0.5,0.4-0.8
		c0-0.2-0.2-0.3-0.4-0.4c-0.5-0.1-1.1-0.4-1.4-0.8c-0.6-0.9-0.2-2.1,0.3-2.9c0.2-0.4,0.5-0.8,1-1c0.3-0.1,0.6-0.2,0.9-0.1
		c0.2,0.1,0.3,0.3,0.4,0.4c0.3,0.2,0.7,0.1,0.9-0.1C51.8,49.4,52.4,49.8,52.6,50.4 M59.3,46.4c-0.2,0.3-0.6,0.5-1,0.5
		c-0.5,0-0.9,0-1.1-0.6c0-0.1-0.1-0.7-0.3-0.7s-0.5,0.5-0.6,0.7c-0.3,0.5-0.9,1.6-1.5,1.7c-0.6,0.1-0.4-0.6-0.5-1s-0.3,0.1-0.4,0.2
		c0,0.1-0.1,0.2-0.1,0.3c-0.2,0.3-0.5,0.6-0.9,0.5c-0.3-0.1-0.4-0.6-0.4-0.9c0.1-0.5,0.4-1.2,0.7-1.6c0.2-0.3,0.6-0.7,1-0.9
		c0.2-0.1,0.4-0.2,0.6,0c0.1,0.1,0.1,0.1,0.2,0.2c0.3,0.2,0.6,0.1,0.8-0.2c0.8-0.9,2.1-1.1,3-0.3C59.4,44.8,59.8,45.7,59.3,46.4
		 M60.5,37.6c-0.2,0.6-0.6,1-1.1,1.2c-0.1,0-0.2,0.1-0.3,0.1c-0.3,0.1-0.6,0.3-0.6,0.7c0,0.2,0.1,0.3,0.2,0.5
		c0.2,0.2,0.2,0.4,0.1,0.7c-0.2,1-1,1.1-1.9,1.3c-0.4,0.1-0.8,0.2-1.2,0.3c-0.2,0.1-0.6,0.2-0.8,0.2s-0.4-0.1-0.5-0.3
		c-0.2-0.3,0.1-0.6,0.3-0.8c0.5-0.4,1.2-0.5,1.7-0.7c0.1,0,0.8-0.3,0.7-0.5c0-0.1-0.6,0-0.7,0c-0.4,0.1-0.8,0.2-1.2,0.3
		c-0.1,0-0.4,0.1-0.4,0c-0.1-0.1,0.2-0.5,0.2-0.5c0.7-1,1.5-2,2.5-2.8c0.1-0.1,0.8-0.7,0.7-0.8c0-0.1-0.3,0-0.3,0.1
		c-0.7,0.3-1.3,0.9-1.9,1.5c-0.1,0.1-0.2,0.2-0.3,0.2h-0.1c-0.1,0-0.1-0.5-0.1-0.6c0-0.2,0-0.7,0-0.8c0,0,0-0.2-0.1-0.2
		c-0.2,0-0.3,0.5-0.3,0.5c-0.2,0.9-0.2,1.5-0.5,2.2c-0.2,0.5-1.3,2.3-1.6,2.6c-0.2,0.2-0.5,0.2-0.6-0.1c-0.3-0.4-0.1-1.4,0-1.9
		c0.2-0.7,0.5-1.1,1-1.7c0.3-0.4,0.5-0.7,0.5-1.2c0-0.3,0-0.5,0-0.8s0.1-0.6,0.3-0.8c0.2-0.3,0.4-0.5,0.7-0.7c0.4-0.3,1-0.4,1.5-0.1
		c0.2,0.1,0.3,0.3,0.4,0.6c0,0.2,0.3,0.1,0.4,0.1c0.2-0.1,0.4-0.2,0.5-0.2c1.3-0.6,2.3-0.3,2.8,1.1C60.8,36.6,60.7,37.2,60.5,37.6
		 M61.3,41.6c0.3,0.3,0.1,0.9-0.1,1.2c-0.5,0.6-1.5,0.7-1.7-0.2c0-0.2,0-0.4,0.1-0.6c0.1-0.2,0.4-0.3,0.6-0.4
		C60.6,41.3,61.1,41.3,61.3,41.6 M65.7,39.1c-0.2,0.3-0.9,0.3-1.3,0.2c-0.3-0.1-0.6-0.2-0.9-0.4c-0.1-0.1-0.5-0.4-0.7-0.3
		c-0.1,0.1,0.1,0.6,0.2,0.7c0.1,0.2,0.2,0.5,0.1,0.7c-0.2,0.4-0.6,0.6-1.1,0.6c-0.2,0-0.5-0.1-0.6-0.3c-0.6-0.7,0.4-3.2,0.9-3.9
		c0.5-0.6,1.1-0.4,1.6,0c0.3,0.2,0.5,0.4,0.7,0.6C65.2,37.5,66.2,38.4,65.7,39.1 M68.5,45.1c0.1,0.1,0.2,0.2,0.2,0.4
		c0,0.1,0.1,0.3,0,0.4c0,0.2-0.2,0.5-0.3,0.6c-0.5,0.6-1.4,0.8-2.2,0.7c-0.1,0-0.1,0-0.2,0c-0.6-0.1-1.1-0.2-1.6,0.2
		c-0.2,0.1-0.4,0.3-0.6,0.5c-0.3,0.3-0.5,0.5-1,0.6c-0.1,0-0.1,0-0.2,0c-0.2,0-0.4-0.1-0.4-0.3c0-0.5,0.3-0.9,0.6-1.2
		c0.8-0.9,1.3-0.9,2.5-1c0.2,0,0.3,0,0.5,0c0.1,0,0.4-0.1,0.4-0.1c0-0.1-0.2-0.1-0.2-0.1c-0.3-0.1-0.7-0.2-1.1-0.2
		c-0.1,0-0.3,0-0.3-0.1s0.1-0.3,0.2-0.4c0.2-0.3,0.5-0.5,0.7-0.7s0.4-0.3,0.6-0.5c0.1-0.1,0.3-0.2,0.4-0.3s0.4-0.3,0.3-0.4
		c-0.1-0.1-0.8,0.2-0.9,0.3c-0.1,0-0.1,0.1-0.1,0.1c-0.4,0.3-0.8,0.5-1.1,0.8c-0.1,0-0.1,0.1-0.2,0.2c0,0-0.2,0.2-0.3,0.2
		c0,0,0-0.1,0-0.2c0-0.1,0-0.2,0.1-0.3c0-0.2,0.1-0.4,0.2-0.6c0-0.1,0.2-0.6,0.1-0.7c-0.1,0-0.2,0.1-0.2,0.1
		c-0.1,0.1-0.2,0.2-0.3,0.3c0,0.1-0.1,0.1-0.1,0.2c-0.2,0.4-0.4,0.9-0.6,1.3c-0.1,0.3-0.3,0.6-0.5,0.9c-0.2,0.3-0.4,0.7-0.6,1
		c-0.1,0.2-0.2,0.3-0.3,0.5s-0.6,0.9-0.9,0.6c-0.3-0.4-0.2-2.3,0.2-3.3c0.2-0.6,0.5-0.7,1-1c0.1-0.1,0.3-0.1,0.4-0.2
		c0.5-0.4,0.5-1.1,0.9-1.6c0.2-0.4,0.6-0.6,1.1-0.7c0.3,0,0.8,0,1.1,0.3c0.1,0.1,0.2,0.2,0.3,0.3c0.2,0.1,0.3,0.2,0.5,0.1
		c0.1,0,0.2-0.1,0.3-0.1c0.5-0.2,1-0.2,1.4,0.2c0.5,0.4,0.5,1.1,0.3,1.6c-0.1,0.2-0.3,0.4-0.4,0.7C68.1,44.5,68.1,44.7,68.5,45.1
		 M74.5,36.5c-0.2-0.1-0.4-0.2-0.5-0.5c-0.1-0.2-0.1-0.5,0-0.8s0.4-0.9,0.8-0.9c0.5-0.1,0.9,0.4,1,0.8c0.1,0.4,0.1,1.1-0.4,1.3
		C75.1,36.7,74.8,36.6,74.5,36.5 M70.8,46.1c-0.3-0.5-0.7-0.9-0.8-1.4c-0.2-1,0.7-1.2,1-1.2c0.4,0,0.5-0.1,0.6-0.4
		c0.1-0.4,0.3-0.8,0.5-1.2c0.9-1.4,2.4-1.4,2.8,0.6c0,0.1,0.1,0.3,0.1,0.4c0.2,0.5,0.4,0.5,0.6,0.5c1.2-0.2,1.7,0.9,1.7,2
		c0,1.4-0.8,1.9-1.1,2.9c-0.1,0.5,0,1.1,0.2,1.6c0,0.2,0,0.4-0.1,0.6c-0.1,0.1-0.1,0.2-0.3,0.2c-0.8,0.4-1.5-1.1-1.6-1.7
		c-0.1-0.5-0.2-1.1,0-1.6s0.5-0.8,0.8-1.2c0-0.1,0.3-0.4,0.2-0.4c-0.1-0.1-0.9,0.5-1,0.6s-0.4,0.3-0.5,0.3s-0.1-0.1-0.1-0.2
		c-0.2-0.8-0.2-1.7-0.2-2.6c0-0.1,0-0.2,0-0.3s-0.1-0.3-0.2-0.3s-0.2,0.3-0.2,0.4C73.1,44,73,44.5,73,44.9c0,0.1,0,0.2,0,0.3
		s0,0.3,0,0.4c0,0.1,0,0.2-0.1,0.3c-0.2,0.2-1.4-1.1-1.6-0.7c0,0.1,0.2,0.4,0.3,0.4c0.1,0.1,0.2,0.2,0.3,0.3
		c0.6,0.5,0.9,0.8,1.3,1.6c0.1,0.1,0.3,1,0.2,1.1c0,0-0.1,0-0.2,0s-0.2-0.1-0.3-0.1c-0.4-0.1-0.8-0.2-1.2-0.3c0,0-0.2,0-0.2,0.1
		s0.1,0.2,0.2,0.2h0.1c0.5,0.2,1,0.5,1.4,0.8c0.3,0.2,0.6,0.5,0.8,0.9c0.1,0.2,0.3,0.6,0.1,0.8c-0.1,0.1-0.2,0.1-0.4,0.1
		c-0.5,0-1.4-0.6-1.9-0.9c-0.5-0.3-1-0.8-1.3-1.3c-0.1-0.1-0.1-0.3-0.2-0.5c-0.1-0.4-0.2-0.8,0.2-1.1c0.1,0,0.1-0.1,0.2-0.2
		C71.1,46.7,71,46.4,70.8,46.1L70.8,46.1L70.8,46.1z M70.4,35c0,0.1,0,0.3,0,0.4c0,0.2-0.1,0.2-0.2,0.1c-0.2-0.2-0.5-0.5-0.7-0.7
		s-0.3-0.4-0.5-0.6c-0.1-0.1-0.8-0.7-1-0.6l0,0c-0.1,0.2,0.3,0.6,0.4,0.7c0.3,0.4,0.7,0.8,1,1.2c0.1,0.2,0.3,0.3,0.4,0.5
		c0.1,0.1,0.1,0.1,0.2,0.2c0,0.1,0.2,0.2,0.1,0.3s-0.5-0.1-0.6-0.1c-0.4-0.2-1.2-0.5-1.6-0.4l-0.1,0.1c0,0.1,0.3,0.2,0.4,0.3
		c1.5,0.6,2.7,1.3,3.4,2.8c0.1,0.3,0.2,0.6,0.3,0.9c0.1,0.2,0,0.5-0.2,0.7c-0.1,0.1-0.3,0.1-0.4,0.1c-0.2,0-0.4-0.2-0.5-0.3
		s-0.3-0.3-0.4-0.4c-0.2-0.3-0.5-0.4-0.8-0.5c-0.1,0-0.2,0-0.3-0.1c-0.5-0.1-1.2-0.5-1.2-1.1c0-0.2,0-0.6-0.2-0.8
		c-0.1-0.1-0.3-0.1-0.4-0.2c-0.2-0.1-0.4-0.1-0.7-0.2c-0.3-0.1-0.7-0.3-0.9-0.6c-0.4-0.6,0-1.4,0.6-1.6c0.1,0,0.2-0.1,0.2-0.2
		c0.1-0.4-0.2-0.8-0.5-1.1c-0.3-0.4-0.5-1-0.2-1.5c0.1-0.2,0.2-0.3,0.3-0.4c0.7-0.6,1.5-0.5,2.2,0c0.2,0.1,0.4,0.2,0.5,0.4
		c0.2,0.1,0.5,0.4,0.7,0.3c0.2-0.1,0.4-0.3,0.6-0.3c0.3,0,0.6,0.2,0.8,0.3c0.5,0.3,1,0.9,1.1,1.4c0.2,0.5,0.2,1,0.2,1.5
		c0,0.2,0,0.7,0.1,0.9c0,0.1,0.1,0.1,0.1,0.1c0.1,0.1,0.2,0.1,0.3,0.2c0.5,0.3,0.5,1,0.5,1.5c0,0.4-0.2,0.9-0.4,1.2
		c-0.1,0.1-0.3,0.3-0.4,0.3c-0.3,0-0.5-0.4-0.6-0.7c-0.3-0.9-0.7-1.7-0.8-2.6C71,35.9,71,35.5,71,35.1c0-0.2-0.1-0.7-0.3-0.7
		C70.4,34.4,70.4,34.9,70.4,35 M42.6,69.9c0,0.2,0.1,0.4,0.4,0.6c0.4,0.2,2.7-1.1,1.1-2.1C42.9,67.7,42.5,68.9,42.6,69.9 M38,51.1
		c0.4-0.8,1-0.8,1.6-0.1c0.3,0.4,0.3,1.1-0.1,1.4c-0.2,0.2-0.6,0.3-0.9,0.2c0,0-0.1,0-0.1-0.1C37.9,52.3,37.7,51.6,38,51.1
		 M27.5,70.7c-0.1-0.3,0.1-0.4,0.3-0.6C27.9,70,27.9,70,28,70c0.4-0.2,0.9-0.2,1.3-0.1s0.6,0.1,1,0.3c0.2,0.1,0.5,0.4,0.6,0.6
		c0.1,0.5-0.3,0.9-0.7,1.1c-0.3,0.2-0.6,0.3-0.9,0.4c-0.1,0-0.6,0.2-0.6,0.4c0,0.1,0.6,0,0.7,0c0.3-0.1,0.7-0.2,1-0.3
		c0.1,0,0.3-0.2,0.4-0.1c0,0,0,0.1,0,0.2c0,0.2,0,0.4,0,0.6s0,0.5,0.1,0.7l0.1,0.1c0.1,0,0.1-0.1,0.1-0.2c0.2-0.8,0.3-1.9,0.9-2.6
		c0.3-0.4,0.8-0.7,0.8-0.1v0.1c0,1.5,0.4,0.3,0.6-0.1v-0.1c0.1-0.2,0.1-0.3,0.2-0.5c0.1-0.3,0.3-0.6,0.6-0.7
		c0.3-0.2,0.6-0.3,0.7,0.2c0,0.7-0.3,1.9-0.8,2.5c-0.2,0.3-0.6,0.5-0.9,0.6c-0.3,0.1-0.5,0.2-0.6,0.4c-0.2,0.3-0.1,0.8-0.3,1.1
		c-0.1,0.3-0.4,0.6-0.7,0.7c-0.4,0.2-0.8,0-1.1-0.2c-0.1-0.1-0.2-0.2-0.3-0.3c-0.5-0.4-0.8-0.6-1.4-0.3c-0.6,0.3-1.4-0.3-1.7-0.8
		c-0.2-0.4-0.4-0.8-0.2-1.2c0.1-0.2,0.3-0.4,0.5-0.6c0.1-0.1,0.2-0.2,0.3-0.3C27.8,71.2,27.6,71,27.5,70.7 M37.7,64.8
		c0.1,0.4,0.2,1.1,0.1,1.5c-0.1,0.2-0.4-0.1-0.5-0.2c-0.6-0.5-0.9-1-1.3-1.6c-0.1-0.1-0.4-0.7-0.6-0.6c-0.1,0.1,0,0.5,0,0.6
		s0.1,0.2,0.1,0.2c0.8,1.5,1.7,2.6,3.2,3.4c0.6,0.4,0.2,0.6-0.2,0.9l-0.1,0.1c-0.2,0.2-0.5,0.3-0.7,0.5c0,0-0.1,0.1-0.1,0.2
		c0.1,0.1,0.4-0.1,0.5-0.1c0.6-0.3,2.2-0.8,2.8-0.5c0.5,0.3,0.2,0.9-0.1,1.3c-0.7,0.7-2.2,0.5-3,0.4c-0.2,0-0.4-0.1-0.6-0.2
		c-0.4-0.2-0.8-0.4-0.9-0.8c-0.1-0.4,0-0.8-0.1-1.2c-0.1-0.2-0.2-0.4-0.4-0.5c-0.4-0.3-1.1-0.3-1.6-0.5s-0.9-0.6-0.6-1.1
		c0.1-0.1,0.1-0.2,0.3-0.3c0.4-0.2,0.6-0.6,0.2-0.9c-0.2-0.1-0.4-0.3-0.5-0.5c-0.5-0.5-0.7-0.8-0.6-1.5c0.1-0.9,0.9-1.5,1.7-1.7
		c0.3-0.1,0.6-0.1,0.9-0.1c0.4,0.1,0.6,0.2,0.8,0.5c0.2,0.2,0.3,0.4,0.5,0.6c0.1,0.1,0.2,0.1,0.3,0.1s0.2-0.1,0.3-0.1
		c0.1-0.1,0.2-0.2,0.4-0.2c0.1,0,0.2,0,0.2,0c0.3,0,0.6,0.3,0.8,0.5c0.6,0.6,0.8,1.6,1,2.4c0.1,0.5,0.3,1.1,0.7,1.4
		c0.1,0.1,0.1,0.1,0.2,0.1c0.4,0.3,0.7,0.4,1,0.9c0.1,0.2,0.2,0.4,0.1,0.6c-0.2,0.3-0.7,0.3-1,0.2c-0.1,0-0.2,0-0.3-0.1
		c-0.5-0.2-1-0.4-1.4-0.7c-0.3-0.3-0.6-0.6-0.7-1c-0.1-0.2-0.1-0.5-0.1-0.8c0-0.4-0.1-0.7-0.2-1c0-0.1-0.3-0.6-0.4-0.5
		C37.7,64.5,37.7,64.8,37.7,64.8 M42.5,61.8c0,0.1-0.2,0.2-0.2,0.2c-0.1,0-0.2-0.4-0.2-0.5c0-0.2,0-0.3-0.1-0.4
		c-0.1-1.3,0.1-2.3,0.3-3.6c0-0.1,0-0.2,0-0.2c-0.1,0-0.3,0.2-0.3,0.3c-0.3,0.7-0.4,1.3-0.5,2.1v0.1c-0.1,0.1-0.6-0.6-0.9-0.7
		c-0.1,0-0.1,0-0.1,0c-0.1,0.1,0.1,0.4,0.1,0.5c0.2,0.3,0.4,0.5,0.5,0.8c0.2,0.3,0.3,0.5,0.3,0.9c0,0.3,0.1,0.5,0.1,0.8
		c0.1,0.4,0.2,0.8,0.3,1.2c0.1,0.3,0.1,0.7-0.2,0.8c-0.1,0-0.2,0-0.3,0c-0.8-0.1-1.3-1.5-1.4-2.4c0-0.4,0-0.7-0.3-1
		c-0.4-0.5-1.4-2.5-0.2-3.1c0.2-0.1,0.4-0.1,0.7,0.1c0.3,0.2,0.5-0.6,0.5-0.8c0-0.5,0.3-0.9,0.7-1.2s0.8-0.4,1.3-0.4
		c0.4,0,0.7,0.1,1.1,0.3c0.4,0.2,0.7,0.6,0.8,1c0.2,0.5,0.2,1.1-0.1,1.6c-0.2,0.3-0.5,0.8-0.2,1.1c0.1,0.1,0.2,0.1,0.4,0.1
		c0.3,0,0.5,0.2,0.6,0.4c0.2,0.3,0.2,0.8,0,1.1c-0.1,0.1-0.1,0.3-0.2,0.4c-0.2,0.3-0.3,0.6-0.4,0.9c-0.7,1.3-0.7,2.1-0.8,2.8
		c-0.1,0.8-0.7,1.2-1,0.7c-0.1-0.2-0.2-0.6-0.2-1.1c-0.1-1.5,0.6-2.7,1-3.3c0.1-0.2,0.4-0.5,0.3-0.6c0,0-0.1-0.1-0.4,0.2
		C43,61,42.6,61.6,42.5,61.8 M48.9,69.5c0.2,0.2,0.5,0.4,0.9,0.4c0.3,0,0.6,0,0.8-0.2c0.3-0.3,0.3-0.6,0.2-0.9
		c-0.3-0.9-1.1-0.7-1.7-0.3C48.4,68.8,48.5,69.1,48.9,69.5 M47.5,64.4c-0.1,0.2-0.2,0.3-0.4,0.7c-0.5,0.8-1.3,1.8-1.8,2
		c-0.2,0.1-0.4,0.1-0.6,0c-0.2-0.2-0.2-0.5-0.2-0.8c0-0.4,0.2-0.8,0.4-1.1c0.1-0.2,0.3-0.4,0.5-0.6c0.1-0.1,0.3-0.3,0.4-0.4
		c0.3-0.3,0.3-0.6,0.3-1c0-0.3,0-0.7,0-1c0-0.7,0.2-1.6,0.7-2.1c0.4-0.4,1.4-0.8,1.9-0.4c0.1,0.1,0.2,0.1,0.3,0.1
		c0.4,0.1,0.8-0.1,1.2-0.5s1-0.5,1.5-0.3c0.8,0.3,1.5,1.5,0.9,2.3c-0.6,0.6,0,1,0.3,1.5c0.1,0.1,0.2,0.3,0.2,0.5
		c0,0.6-0.6,1.1-1.1,1.3c-0.6,0.2-0.9,0.2-0.8,1c0.1,0.3-0.1,0.8-0.3,1s-0.3,0.3-0.6,0.4c-0.3,0-0.5,0-0.7,0.1
		c-0.2,0-0.4,0.1-0.6,0.1c-0.1,0-0.3,0-0.4,0.1c-0.2,0-0.4,0.1-0.6,0.2c-0.5,0.2-1,0.6-1.6,0.6c-0.2,0-0.4-0.1-0.5-0.3
		c-0.1-0.2,0.1-0.4,0.3-0.7c0.2-0.2,0.7-0.6,0.8-0.7c0.7-0.4,1.6-0.5,2.3-0.6c0.1,0,0.4-0.1,0.4-0.2c-0.1-0.4-1.1-0.2-1.3-0.2
		c-0.7,0.1-0.4-0.3,0-0.8c0.7-0.9,1.6-1.9,2.1-2.8c0.1-0.2,0.2-0.5,0.1-0.6c-0.1-0.1-0.4,0.2-0.4,0.3c-0.4,0.5-1.1,1.3-1.4,1.7
		c-0.3,0.3-0.4,0.2-0.4-0.2c0-0.5,0-1-0.1-1.5c0-0.1-0.1-0.5-0.2-0.5c-0.1,0-0.2,0.4-0.2,0.5C47.9,62.4,47.8,63.7,47.5,64.4
		 M57.9,73.4c-0.1,0-0.5,0-0.6,0.2v0.1c0,0.1,0,0.1,0,0.2c0,0.6-0.4,1-1,0.8c-0.4-0.1-0.7-0.5-1.1-0.8l0,0l0,0
		c-0.2-0.2-0.4-0.3-0.6-0.1c-0.1,0.1-0.1,0.1-0.1,0.2c-0.2,0.3-0.6,0.3-0.9,0.1c-0.1-0.1-0.2-0.1-0.4-0.2c-0.4-0.3-0.7-0.8-0.9-1.3
		c-0.2-0.4-0.6-1.2-0.6-1.7c0-0.1,0-0.3,0.1-0.4c0.2-0.2,0.5,0,0.6,0.1c0.3,0.2,0.5,0.5,0.6,0.8c0.2,0.4,0.4,0.9,0.5,1.3
		c0,0.1,0.1,0.3,0.2,0.3c0.2-0.1,0-0.8,0-0.9s0-0.2-0.1-0.3c0-0.1-0.1-0.3,0.1-0.4c0.1-0.1,0.3,0,0.4,0.1c0.1,0,0.2,0.1,0.3,0.2
		c0.6,0.3,0.8,0.6,1.1,1.2c0.1,0.1,0.1,0.2,0.2,0.3c0,0,0.2,0.3,0.3,0.2c0.2-0.1-0.3-1-0.3-1.2c0-0.3,0.1-0.3,0.3-0.2
		c0.5,0.1,0.8,0.1,1.3,0c0.1,0,0.3,0,0.3-0.2c0-0.1-0.1-0.2-0.2-0.2c-0.1,0-0.2,0-0.2,0c-0.7,0-1.4-0.1-2-0.3
		c-0.1,0-0.2-0.1-0.2-0.1c0-0.1,0.2-0.4,0.3-0.4c0.1-0.1,0.2-0.3,0.3-0.4c0-0.1,0.3-0.4,0.2-0.4c-0.1-0.1-0.3,0.1-0.4,0.1
		c-0.3,0.2-0.6,0.5-1,0.6c-0.4,0.2-0.9,0-1.3-0.1c-0.5-0.2-1.7-0.7-1.3-1.4c0.1-0.1,0.1-0.2,0.2-0.2c0.2-0.1,0.3-0.1,0.5,0
		c1.2,0.4,1.3,0.3,2.4-0.3c0.2-0.1,0.5-0.3,0.8-0.3c0.1,0,0.2,0,0.4,0c0.6,0,1,0.3,1.2,0.9c0,0.1,0,0.2,0,0.3c0,0.1,0,0.2,0,0.3
		c0,0.1-0.1,0.3-0.1,0.4c0,0.2,0.3,0.3,0.4,0.3c0.2,0.1,0.5,0.2,0.8,0.3c0.3,0.1,0.6,0.3,0.7,0.6c0.3,0.4,0.3,0.9,0.1,1.4
		C59,73.1,58.5,73.4,57.9,73.4 M58.7,64.2c0,0.1,0.1,0.3,0.1,0.4c0.2,0.9-0.3,1.4-1.1,1.5c-0.4,0-0.8-0.1-1.1-0.1s-0.5,0.2-0.7,0.4
		c-0.2,0.3-0.5,0.6-0.9,0.7c-0.7,0.2-2,0.1-2.6-0.2c-0.5-0.2-0.2-0.5,0.1-0.7c0.5-0.3,1.4-0.3,2-0.2c0.1,0,0.2,0,0.3,0
		s0.4,0,0.4-0.1s-0.1-0.1-0.1-0.1c-0.3-0.1-0.6-0.2-0.9-0.4c-0.3-0.1-0.1-0.3,0.1-0.4c1-0.6,2.2-0.3,3.2-0.1c0.1,0,0.2,0,0.2-0.1
		c0,0,0-0.1-0.1-0.1c-0.1-0.1-0.4-0.2-0.6-0.3c-0.2-0.1-0.4-0.2-0.6-0.2l-0.1-0.1c0-0.1,0.2-0.3,0.3-0.4c0.3-0.2,0.5-0.5,0.7-0.8
		c0.1-0.1,0.1-0.2,0.2-0.3c0-0.1,0.2-0.3,0.1-0.4c-0.1-0.1-0.5,0.3-0.6,0.3c-0.2,0.3-0.5,0.5-0.7,0.7c-0.3,0.3-0.8,0.5-1.3,0.2
		c-0.2-0.1-0.4-0.5-0.4-0.7c-0.1-0.4,0-0.8,0.1-1.2s0.3-0.9,0.6-1.2c0.1-0.1,0.1-0.1,0.2-0.1c0.2-0.1,0.6-0.1,0.8,0s0.4,0.5,0.6,0.5
		c0.1,0,0.3,0,0.4-0.1c0.2-0.1,0.5-0.3,0.8-0.3c0.1,0,0.2,0,0.3,0c0.3,0.1,0.5,0.3,0.7,0.6c0.2,0.2,0.3,0.5,0.3,0.8
		c0,0.4,0,0.8-0.3,1.1C58.5,63.3,58.5,63.6,58.7,64.2 M67.1,58.5c-0.2-0.1,0-0.2,0-0.2c0.2-0.1,0.4-0.1,0.6-0.2
		c0.1,0,0.6-0.2,0.6-0.3s-0.2-0.1-0.4-0.1c-0.8,0.2-1.2,0.3-2.1,0.3c-0.2,0-0.4,0-0.7-0.1c-0.3-0.1-0.6-0.1-0.9-0.2
		c-0.4,0-0.8-0.1-1.2-0.1c-0.1,0-0.1,0-0.2,0c-0.3,0-1,0-0.6-0.5c0.3-0.4,1.1-0.8,1.6-0.9c0.5-0.2,1.8-0.5,2.2,0
		c0.2,0.2,0.2,0.3,0.5,0.3c0.3,0.1,0.9,0,1.3-0.1c0.6,0,1.3,0.1,1.6,0.6c0.2,0.3,0.1,0.6,0,0.9c-0.1,0.2-0.1,0.3,0,0.5
		s0.4,0.3,0.5,0.4c0.2,0.1,0.3,0.3,0.3,0.5c0.1,0.3-0.1,0.7-0.3,0.9c-0.3,0.3-0.7,0.4-1.1,0.4s-0.6,0-0.8,0.3c0,0.1-0.1,0.1-0.1,0.2
		c-0.4,0.6-1.4,0.5-1.9,0.2s-1-1.3-1.4-1.4c-0.1,0-0.3,0-0.4,0c-0.5,0.1-0.8-0.1-1-0.3c-0.1-0.1-0.9-1.5-0.2-1.6
		c0.4-0.1,0.8,0,1.3,0.1c0.3,0.1,0.5,0.2,0.7,0.3c0.5,0.3,0.6,0.6,0.9,1.1c0.2,0.5,0.6,1.1,0.8,1c0.1,0,0-0.2,0-0.3
		c-0.1-0.5-0.4-1-0.5-1.5v-0.1c0.1-0.1,0.5,0.1,0.6,0.2c0.5,0.2,0.9,0.4,1.4,0.6c0.1,0,0.5,0.2,0.6,0.1c0.1-0.1-0.3-0.4-0.4-0.4
		C68,59,67.5,58.7,67.1,58.5 M75.2,56.3c-0.5,0.1-0.9,0.3-1.3,0.5c-0.1,0.1-0.6,0.4-0.6,0.6c0.1,0.1,0.3,0,0.4,0
		c0.4-0.1,0.7-0.3,1.1-0.4c1-0.4,2.3-0.3,3,0.7c0.1,0.2,0.2,0.4,0,0.6l0,0c-0.2,0.1-0.7,0-0.9,0h-0.1c-0.7-0.1-1.1-0.1-1.7,0.2
		c-0.7,0.3-1.3,0.5-2.1,0.4c-0.8-0.2-1.7-0.9-1.3-1.8c0-0.1,0.1-0.1,0.1-0.2c0.2-0.2-0.5-0.4-0.6-0.4c-0.2-0.1-0.4-0.2-0.6-0.3
		c-0.5-0.3-0.8-0.9-0.6-1.5c0.2-0.7,0.8-1,1.4-1.1c0.1,0,0.3,0,0.4,0s0.3,0,0.3-0.1s0.1-0.2,0.1-0.2c0-0.1,0.1-0.3,0.2-0.4
		c0.4-0.7,1.2-0.8,1.9-0.5c0.5,0.2,0.9,0.7,1.2,1.1c0.2,0.3,0.4,0.5,0.6,0.8c0.2,0.2,0.4,0.3,0.6,0.4c0.1,0,0.2,0,0.3-0.1
		c0.6-0.3,1.4,0.6,1.7,1.1c0.1,0.1,0.1,0.3,0.2,0.4c0.1,0.2,0.2,0.6,0,0.9c-0.3,0.4-1.1,0-1.4-0.2c-0.7-0.4-1.3-0.8-2-1.3
		c-0.5-0.3-0.8-0.7-1.2-1.2c-0.1-0.1-0.5-0.5-0.6-0.4c-0.1,0,0,0.2,0,0.2c0.1,0.1,0.2,0.3,0.3,0.4c0.1,0.1,0.2,0.2,0.3,0.3
		c0.1,0.1,0.1,0.2,0.2,0.3s0.1,0.2-0.1,0.2l0,0l0,0c-0.6-0.1-1.3-0.1-2-0.1c-0.1,0-0.5,0-0.5,0.2s0.5,0.2,0.7,0.3
		c0.8,0.1,1.5,0.2,2.2,0.4c0.1,0,0.2,0.1,0.2,0.1C75.3,56,75.5,56.2,75.2,56.3L75.2,56.3L75.2,56.3z M87.1,79.5
		c-0.5,0.1-1-0.1-1.3-0.5c-0.2-0.3-0.4-0.7-0.8-0.7c-0.1,0-0.2,0.1-0.3,0.1c-0.4,0.4-1.4,0.6-1.7,0.1c-0.2-0.3-0.2-0.6-0.1-0.9
		c0-0.3,0.2-0.8,0.1-1c-0.1-0.3-0.3-0.3-0.6-0.4c-0.1,0-0.1,0-0.2,0c-0.4-0.1-0.5-0.4-0.4-0.8c0-0.3,0.1-0.8,0-1.1
		c0-0.1-0.1-0.2-0.2-0.3c-0.1-0.2-0.2-0.3-0.3-0.5c-0.1-0.3-0.2-0.6,0-0.9c0.3-0.3,0.7-0.1,1,0.1c1.6,1,2.1,2.4,2,4.3
		c0,0.1,0,0.1,0,0.2c0,0.2,0.1,0.3,0.2,0.1c0.3-0.3,0.4-1,0.4-1.4c0-0.2,0-0.4,0-0.6v-0.1v-0.1l0,0c0.1,0,0.1,0.2,0.2,0.2
		c0.4,0.6,0.8,1.3,1.1,1.9c0.1,0.1,0.3,0.6,0.5,0.5s0-0.8-0.1-1s-0.2-0.4-0.3-0.6c-0.1-0.2-0.3-0.5-0.4-0.8c0-0.2,0.1-0.2,0.2-0.2
		s0.2,0.1,0.4,0.1c0.1,0.1,0.6,0.2,0.7,0s-0.4-0.4-0.6-0.4c-0.3-0.1-0.7-0.3-1-0.5c-0.8-0.5-1.6-1-2.4-1.6c-0.1,0-0.1-0.1-0.2-0.1
		c-0.1-0.1-0.5-0.3-0.3-0.5c0.4-0.2,1.1-0.3,1.6-0.2c0.5,0,1.6,0.3,1.7,0.9c0,0.1,0,0.2,0,0.3c0,0,0,0.1,0.1,0.1
		c0.1,0.1,0.6,0.2,0.7,0.3c0.4,0.1,0.9,0.3,1.3,0.6c0.5,0.3,0.9,1,0.8,1.6c0,0.1,0,0.2,0,0.2c0,0.2-0.1,0.4-0.3,0.4
		c-0.1,0-0.2,0.1-0.3,0.1c-0.2,0.1-0.1,0.5-0.1,0.7s0.1,0.4,0.1,0.5c0.2,0.8-0.3,1.5-1,1.8C87.5,79.4,87.3,79.5,87.1,79.5
		 M73.7,70.4c0-0.5,0.1-1,0.6-1.2c0.6-0.2,1.2-0.1,1.6,0.5c0.1,0.1,0.2,0.2,0.3,0.3c0.2,0.1,0.4,0.2,0.6,0.2
		c0.2-0.1,0.5-0.2,0.8-0.3c0.4,0,0.9,0.2,1.2,0.5c0.7,0.5,1.3,1.4,0.5,2.1c-0.2,0.1-0.4,0.2-0.6,0.3c-0.4,0.1-1,0.1-0.9-0.5
		c0-0.1,0-0.3,0.1-0.4c0.1-0.3-0.3-0.4-0.5-0.2c-0.2,0.2-0.2,0.7-0.5,0.8c-0.2,0-0.3-0.1-0.4-0.2c-0.3-0.3-0.5-0.6-0.8-0.9l-0.1-0.1
		c0,0,0,0,0-0.1c-0.4-0.6-0.9-0.4-0.5,0.2l0.1,0.1c0.1,0.2,0.3,0.4,0.4,0.6s0.2,0.5,0,0.8c-0.3,0.4-0.9,0.4-1.4,0.3
		c-1-0.3-1.2-1.4-0.4-2.1c0.1-0.1,0.1-0.3,0.1-0.5C73.7,70.5,73.7,70.5,73.7,70.4 M73.1,75.6c-0.1-0.6,0.5-1.1,1-1.3
		c0.5-0.2,1-0.2,1.6-0.1c0.1,0,0.2,0,0.3,0c0.4,0,0.9,0,1.3-0.2c0.1,0,0.1-0.1,0.2-0.2c0.4-0.4,1.2-0.6,1.7-0.2
		c0.1,0.1,0.2,0.2,0.3,0.3c0.2,0.4-0.4,0.8-0.7,1c-0.3,0.2-0.5,0.3-0.8,0.4c-0.8,0.2-1.6,0.3-2.4,0.2c-0.7-0.1-1.5,0.2-0.2,0.5
		c0.3,0.1,0.6,0.1,0.9,0.2l0,0c0.1,0,0.3,0,0.3,0.1s-0.1,0.2-0.2,0.2c-0.5,0.3-1,0.6-1.5,0.8c-0.1,0-0.2,0.1-0.4,0.1
		c-1.1,0.4-0.7,0.7,0.1,0.5c0.1,0,0.3-0.1,0.4-0.1c0.4-0.1,0.7-0.3,1-0.4c0.1-0.1,0.4-0.2,0.4,0s-0.1,0.5-0.2,0.7
		c-0.3,1.1,0.1,1,0.5,0.2c0-0.1,0-0.1,0.1-0.2s0.1-0.3,0.2-0.4c0.2-0.6,0.6-1,1-1.5c0.5-0.5,1.7-1.2,2.3-0.8
		c0.2,0.1,0.3,0.3,0.3,0.6c0,0.3-0.3,0.7-0.4,0.9c-0.2,0.3-0.3,0.5-0.5,0.8c-0.3,0.5-0.8,1.4-1.4,0.9c-0.2-0.1-0.3-0.1-0.5,0
		c-0.1,0.1-0.1,0.1-0.2,0.2c-0.2,0.2-0.2,0.5-0.4,0.8c-0.2,0.4-0.5,0.6-0.9,0.7c-0.2,0.1-0.5,0.1-0.7,0S75.2,80.1,75,80
		c-0.2-0.2-0.2-0.4-0.5-0.4c-0.1,0-0.2,0-0.3,0c-0.3,0-0.6,0.2-1,0.2c-0.4,0.1-0.8,0-1.2-0.2c-0.1-0.1-0.3-0.2-0.4-0.3
		c-0.3-0.3-0.4-0.7-0.5-1.1c0-0.4,0-0.8,0.3-1.1c0.2-0.2,0.6-0.4,0.9-0.5c0.2-0.1,0.3-0.2,0.4-0.4C73.1,75.9,73.1,75.8,73.1,75.6
		 M86.3,70.8c-0.1-0.3,0-0.6,0.2-0.8c0.3-0.3,0.9-0.3,1.3-0.1c0.4,0.2,0.7,0.7,0.5,1.1c-0.1,0.3-0.6,0.5-0.9,0.6
		C86.9,71.6,86.4,71.4,86.3,70.8 M88.4,67.6c0.2-0.2,0.5-0.4,0.7-0.6c0.5-0.4,1-0.6,1.6-0.9c0.3-0.1,0.2-0.4-0.4-0.2
		c-0.3,0.1-0.6,0.2-0.8,0.3c-0.3,0.1-0.5,0.3-0.8,0.4s-0.5,0.3-0.7,0.5s-0.4,0.2-0.3-0.1c0-0.3,0-0.7-0.1-1c0-0.1-0.1-0.2-0.1-0.3
		c0,0,0,0-0.1,0c-0.2,0-0.2,0.3-0.2,0.4c-0.1,1-0.5,2.1-1.2,2.8c-0.1,0.1-0.2,0.2-0.2,0.2c-0.2,0.2-0.7,0.4-1,0.4
		c-0.2,0-0.5,0-0.7-0.1c-0.7-0.5,0.1-1.6,0.6-1.9c0.6-0.4,0.7-0.7,0.7-1.1c0.2-0.9,0.6-2.1,1.5-2.4c1.1-0.4,1.5,0.3,2.1,0.6
		c0.3,0.1,0.5,0.1,0.9,0c0.3,0,0.6-0.1,0.9-0.1c0.5,0,1.1,0.1,1.5,0.4c0.2,0.2,0.4,0.4,0.6,0.7c0.3,0.5,0.3,1.1-0.3,1.4
		c-0.2,0.1-0.7,0.4-0.8,0.5c-0.1,0.2,0,0.4,0.1,0.6c0.1,0.3-0.1,0.6-0.3,0.7c-0.5,0.3-1.2,0.4-1.7,0.4c-0.3,0-0.7,0-1-0.1
		C87.8,68.8,87.6,68.3,88.4,67.6 M106.6,67.2c-0.2,0.3-0.8,1-1.2,0.5c-0.3-0.4-0.1-0.9,0.1-1.4c0.3-0.5,0.8-1.2,1-1.8
		c0-0.1,0.1-0.3,0-0.3c-0.1-0.1-0.4,0.3-0.5,0.4s-0.2,0.3-0.3,0.4c-0.1,0.2-0.3,0.4-0.4,0.5c-0.2,0.2-0.3-0.1-0.3-0.3
		c-0.1-0.6-0.1-1.1-0.2-1.7c-0.1-0.6-0.2-1.1-0.4-1.7c0-0.1-0.3-0.7-0.5-0.6c-0.1,0-0.1,0.3-0.1,0.4c0.2,0.8,0.4,1.6,0.4,2.4
		c0,0.3-0.3,0.2-0.5,0.1c-0.4-0.3-0.8-0.6-1.3-0.9c-0.1,0-0.4-0.2-0.5-0.1c-0.1,0.1,0.1,0.2,0.1,0.3c0.1,0.1,0.1,0.1,0.2,0.2
		c0.5,0.4,1.1,0.9,1.4,1.5c0.4,0.7,0.8,1.7,0.6,2.5c-0.1,0.2-0.2,0.3-0.3,0.4c-0.2,0.1-0.5-0.2-0.6-0.4c-0.3-0.4-0.4-1-0.6-1.5
		c-0.3-0.7-0.6-1.2-1.2-1.6c-0.4-0.3-0.8-0.7-1-1.2c-0.2-0.3-0.2-0.7-0.1-1.1c0.2-0.4,0.6-0.8,1.1-0.8c0.1,0,0.5,0.1,0.6-0.1
		c0-0.2-0.1-0.4-0.1-0.6c-0.3-1.3,0.5-2.5,1.9-2.4s1.8,1.7,2,3c0.1,0.4,0.4,0.5,0.6,0.5c0.7-0.1,1,0.2,1.1,0.7
		C108.1,64.2,107.6,65.9,106.6,67.2 M113.3,58.5c-0.1,0.6-0.5,0.8-0.9,1.3c-0.1,0.1-0.1,0.2-0.1,0.3s0,0.1,0,0.2
		c0.1,0.3,0,0.6-0.2,0.8c-0.3,0.3-0.8,0.5-1.2,0.5c-0.3,0-0.5,0.1-0.8,0.1c-0.7,0.1-1.9,0-1.2-1.2c0.7-1,1.7-1.2,2.2-1.7
		c0.5-0.4,0.5-0.8-0.3-0.5c-0.6,0.3-0.9,0.6-1.5,0.9c-0.2,0.1-0.3,0.2-0.4,0.1c-0.1,0-0.2-0.3-0.4-0.6c-0.1-0.3-0.4-0.5-0.6-0.6
		c-0.1-0.1-0.3,0-0.2,0.2c0.1,0.2,0.2,0.3,0.3,0.6c0.2,0.5,0.2,1.1,0,1.5s-0.8,0.3-1-0.1c-0.1-0.2-0.2-0.5-0.2-0.7
		c-0.1-0.4-0.4-0.8-0.5-1.2c0-0.2,0-0.3,0-0.5c0-0.3,0.1-0.5,0.3-0.7c0.2-0.2,0.4-0.4,0.7-0.5c0.6-0.1,1.2,0.2,1.7,0.4
		s0.9,0,1.3-0.3s0.7-0.6,1.1-0.7C112.5,55.9,113.5,57.4,113.3,58.5 M115.2,59.4c0.4,0.3,0.3,0.9,0.1,1.2c-0.4,0.7-1.5,1-1.8,0.1
		c-0.1-0.2-0.1-0.5,0-0.7c0.1-0.3,0.4-0.5,0.6-0.6C114.4,59.3,115,59.2,115.2,59.4 M110.6,76.9c0.1,0.5-0.2,1-0.6,1.2
		c-0.3,0.1-0.2,0.6-0.1,0.8c0.1,0.6,0,1.2-0.3,1.7c-0.2,0.4-0.5,0.6-0.9,0.7c-1,0.1-1.2-0.7-1.5-1.3c-0.3-0.6-1.1-0.2-1.7-0.3
		c-0.5-0.1-0.8-0.4-0.9-0.8c-0.2-0.5,0-1.2,0-1.8c0-0.4,0-0.8-0.2-1.1c-0.5-0.6,0-2.1,1-1.7c0.7,0.3,0.6,2,0.6,2.7
		c0,0.5,0.2,0.6,0.3,0.4c0.2-0.2,0.2-0.4,0.2-0.6c0.1-0.4,0.2-1.6,0.6-0.9c0.4,0.6,0.7,1.7,0.9,2.3c0.3,1.1,0.7,1.1,0.5-0.2
		c-0.1-0.6-0.3-1.3-0.3-1.4s-0.1-0.3-0.2-0.5c-0.2-0.7,0.2-0.9,0.6-0.9C109.6,75.4,110.3,76,110.6,76.9 M112.7,69.3
		c-0.2-0.4-0.8-0.7-1.3-0.7s-1,0.3-1.4,0.5l0,0l0,0c-0.3,0.1-0.5,0.2-0.8-0.1c-0.1-0.1-0.1-0.1-0.1-0.2c-0.7-1.1-2.1,0.2-2.5,0.6
		c-0.2,0.2-0.3,0.4-0.4,0.7c-0.1,0.4-0.3,1.1,0.3,1.2c0.4,0,0.9-0.6,1.1-0.9c0.1-0.2,0.2-0.4,0.4-0.6c0,0,0-0.1,0.1-0.1
		c0.1-0.2,0.2-0.2,0.2,0.1c0,0.2-0.1,0.5-0.2,0.7c0,0.1-0.1,0.2-0.1,0.3c0,0.1-0.1,0.3,0,0.4s0.4,0.1,0.5,0.1s0.3,0,0.4-0.1
		c0.7-0.2,1-0.4,1.5-0.8c0.1-0.1,0.6-0.5,0.7-0.4s-0.2,0.5-0.3,0.6c-0.1,0.2-0.3,0.3-0.3,0.5c-0.1,0.2,0.1,0.3,0.4,0.3
		c0.6,0.1,1,0.1,1.6,0.3c0.1,0,0.4,0.1,0.4,0.2s-0.1,0.2-0.2,0.2s-0.2,0-0.3,0c-0.4-0.1-0.9-0.1-1.3-0.2c-0.4,0-0.8-0.1-1.2,0
		c-0.2,0-0.2,0.1-0.2,0.2c0.2,0.4,0.7,0.6,1,1c0.4,0.4,0.3,0.8-0.3,0.4c-0.2-0.2-0.5-0.4-0.6-0.4c-0.3-0.3-0.7-0.6-1-0.7
		c-0.5-0.2-1-0.3-1.5-0.3s-1.5,0.2-1.5,0.7s0.7,0.6,1.1,0.6c0.6,0,0.7,0,1.1,0.1c0.3,0.1,0.6,0.4,1.2,0.8c0.5,0.4,1,0.6,1.5,0.7
		c0.8,0.1,1.7,0.1,2.2-0.5c0.1-0.1,0.1-0.2,0.2-0.3c0.1-0.6,0.7-0.7,1.3-0.8c0.4-0.1,0.8-0.1,1.2-0.5c0.2-0.2,0.2-0.4,0.3-0.7
		c0-0.9-0.3-1.3-0.7-1.6c-0.2-0.1-0.4-0.2-0.7-0.2c-0.1,0-0.3,0-0.5-0.1C113,70,113,69.9,112.7,69.3 M102.4,68
		c-0.2-0.8-0.9-1.7-1.4-2.2c-0.3-0.3-0.7-0.4-1.1-0.4c-0.3,0-0.5-0.1-0.7-0.3c-0.1-0.1-0.2-0.3-0.3-0.4c-0.3-0.4-0.6-0.8-1-1
		c-0.6-0.4-1.3-0.2-1.5,0.4C96.2,64.7,96.3,65,95,65c-1.4,0-1.6,1.6-0.7,2.5c0.2,0.2,0.5,0.4,0.8,0.6c0.1,0.1,0.4,0.2,0.3,0.5
		c-0.1,0.5,0.3,0.8,0.6,0.9c0.8,0.3,3.2,0.3,2.7-0.9c-0.5-1.1-1.9-1.3-2.6-1.5c-0.1,0-0.7-0.1-0.7-0.3c0-0.2,0.6-0.2,0.7-0.2
		c0.4,0,0.7,0,1.1,0.1c0.1,0,0.4,0.1,0.4,0c0,0,0-0.1,0-0.2c0-0.2-0.1-0.4-0.2-0.6c0-0.2-0.1-0.5-0.1-0.7c0,0,0-0.1,0.1-0.1
		s0.2,0.1,0.2,0.2c0.4,0.8,0.9,1.8,1.7,2.5c0.1,0,0,0,0.1,0.1s0.1,0.1,0.2,0.1c0.5,0.3,0.7,0.3,0.7,0.1c0.1-0.3-0.2-0.8-0.1-1.2
		c0-0.1,0.1-0.1,0.2,0c0.3,0.4,0.4,0.9,0.7,1.3C101.5,68.8,102.7,68.9,102.4,68 M98.8,72c0,0-0.1,0-0.2-0.1
		c-0.8-0.3-0.2-1.7,1.1-1.9c0.8-0.1,1.4,0.3,1.1,1.2c-0.1,0.1-0.1,0.3-0.2,0.4c-0.4,0.6,0.2,0.6,0.5,0.3c0.1-0.1,0.2-0.2,0.2-0.3
		c0.3-0.5,1.5-1.9,2.5-2.1c0.3-0.1,0.6-0.1,0.8,0.1c0.4,0.3,0.3,1,0,1.6c-0.1,0.3-0.3,0.5-0.5,0.8c-0.4,0.4-0.8,0.7-1.1,0.5
		c-0.1,0-0.2-0.1-0.2-0.2c-0.3-0.2-0.4-0.3-0.9,0.2c-0.3,0.3-0.6,0.6-1,0.8c-1.3,0.6-2.4,0-2.3-0.8C98.8,72.3,98.9,72.1,98.8,72
		 M115.1,65.5c0.1,0,0.2-0.1,0.2-0.2s-0.1-0.1-0.1-0.1c-0.3-0.1-0.8-0.2-1.2-0.2c-0.4,0-0.7,0-1.1,0c-0.1,0-0.3,0-0.4,0
		s-0.2,0-0.2-0.1s0-0.1,0.1-0.2s0.2-0.2,0.3-0.3c0.1-0.1,0.2-0.2,0.4-0.3c0.1-0.1,0.2-0.2,0.3-0.2c0.1,0,0.2-0.1,0.1-0.2
		c0-0.1-0.1-0.1-0.1-0.1c-0.1,0-0.2,0-0.3,0.1c-0.1,0.1-0.2,0.1-0.3,0.2c-0.4,0.2-0.8,0.5-1.2,0.7c-0.5,0.4-1.1,0.6-1.7,0.8
		c-0.4,0.2-1.2,0.3-1.1-0.7c0-0.4,0.2-0.8,0.8-1.2c1.2-0.8,2.3-0.2,3.3-0.7c0.3-0.2,0.6-0.4,0.9-0.5c0.9-0.3,1.9-0.3,1.9,0.8
		c0,0.1,0,0.2,0.1,0.3c0.1,0.2,0.2,0.3,0.4,0.4c0.1,0,0.2,0.1,0.3,0.1c0.6,0.2,1,0.5,1.1,1.1c0,0.5-0.2,0.9-0.7,1.2
		c-0.2,0.1-0.4,0.2-0.7,0.3c-0.2,0.1-0.5,0.2-0.5,0.5c0,0.2,0.1,0.5,0.1,0.7s0,0.5-0.2,0.7c-0.5,0.5-1.7,0.4-2.3,0
		c-0.3-0.2-0.6-0.5-0.9-0.7c-0.2-0.2-0.4-0.3-0.7-0.4c-0.2-0.1-0.3-0.1-0.5-0.1c-0.5-0.1-1,0-1.4,0c-0.3,0-0.8-0.1-0.9-0.5
		s0.5-0.6,0.7-0.7c1.4-0.5,2.8-0.4,4,0.5c0.1,0.1,0.2,0.2,0.3,0.3c0.1,0.1,0.2,0.2,0.3,0.1c0.1,0,0-0.2,0-0.2
		c-0.1-0.2-0.2-0.3-0.3-0.4c-0.1-0.1-0.2-0.2-0.3-0.3c-0.1-0.1-0.5-0.3-0.5-0.4c-0.1-0.3,1.1-0.2,1.3-0.2c0.1,0,0.3,0,0.4,0
		C114.8,65.5,114.9,65.5,115.1,65.5 M116.5,77.4c0,0.5,0,1.2-0.5,1.5c-0.2,0.1-0.4,0.2-0.6,0.2c-0.1,0-0.2,0-0.3,0
		c-0.4,0-0.8,0.1-1,0.6c0,0.1-0.1,0.2-0.2,0.2c-0.2,0.2-0.5,0.2-0.8,0.3c-0.3,0-0.6,0-0.9-0.2c-0.4-0.2-0.7-0.7-0.5-1.1
		c0.1-0.3,0.4-0.6,0.8-0.4c0.1,0.1,0.2,0.2,0.3,0.3c0.4,0.2,0.4,0.1,0.4-0.2c-0.1-0.6-0.6-0.9-0.6-1.4c-0.1-0.4,0.3-0.4,1.1-0.1
		c0.2,0.1,0.3,0.1,0.5,0.2c0.7,0.2,0.8-0.1,0.5-0.4c-0.4-0.4-1.2-0.4-1.4-0.9c-0.2-0.3,0-0.8,0.1-1c0.3-0.6,1-0.6,1.7-0.3
		C115.9,75.3,116.5,76.5,116.5,77.4 M111.9,83.3c-0.2,0.3-0.3,0.9-0.4,1.3c0,0.2-0.1,0.4-0.2,0.5c-1.2,2-4.2-0.8-4.3-2.1
		c0-0.8,0.6-1.2,1.2-1c1,0.2,0.7,1.2,1,1.7c0.2,0.3,0.4,0.2,0.5-0.1c0.1-0.3,0-0.6,0.1-0.9s0.2-0.7,0.4-0.9c0.1-0.2,0.3-0.3,0.4-0.4
		c0.7-0.5,1.6-0.3,1.9,0.4C112.8,82.3,112.3,82.7,111.9,83.3 M104.4,85.3c0.1,0,0.3,0,0.3-0.1c0.1-0.1-0.1-0.3-0.3-0.5
		c-0.1-0.2-0.5-0.4-0.9-0.6c-0.1-0.1-0.2-0.1-0.3-0.1c-0.2-0.1-0.4-0.1,0-0.4c0.2-0.2,0.6-0.5,0.6-0.8c0-0.1-0.2-0.1-0.3,0
		c-0.3,0.2-0.5,0.3-0.9,0.4c-0.5,0.1-1.3,0.2-1.7,0c-0.4-0.2-0.5-0.4-0.5-0.8c0-0.3,0.1-0.5,0.4-0.7s0.9-0.3,1.3-0.1
		c0.2,0.1,0.4,0.1,0.6,0c0.8-0.5,1.8-0.8,2.4-0.1c0.3,0.3,0.2,0.8,0.1,1.2c-0.1,0.3-0.1,0.5,0.1,0.7c0.1,0.2,0.4,0.4,0.6,0.5
		c0,0,0.1,0,0.1,0.1c0.6,0.3,1,0.8,1.2,1.5c0.1,0.7,0,1.3-0.5,1.8c-0.5,0.4-1.1,0.5-1.7,0.3c-0.4-0.2-0.9-0.5-1.1-0.9
		c-0.1-0.1-0.2-0.2-0.2-0.3c-0.3-0.3-0.6-0.6-0.9-0.9c-0.1-0.1-0.4-0.4-0.2-0.6c0.1-0.1,0.3-0.2,0.4-0.2
		C103.3,84.6,103.9,85.1,104.4,85.3 M100.9,85.7c0.7-0.6,1.4,0.1,1.4,0.8c0,0.4-0.2,0.9-0.6,1c-0.2,0-0.3-0.1-0.5-0.1
		c-0.2-0.1-0.3-0.3-0.4-0.5C100.5,86.5,100.5,86,100.9,85.7 M98.4,78.6c-0.1,0.1-0.5,0.9-0.2,1.1c0.1,0,0.4-0.5,0.7-0.9
		c0.1-0.1,0.2-0.2,0.3-0.4c0.5-0.7,1-1.3,1.3-1.6c0.1-0.1,0.3-0.3,0.4-0.3c0.2-0.1,0.2,0.1,0.2,0.3c0,0.1,0,0.5,0,0.9
		s0.2,0.6,0.3,0.6c0.2,0,0.2-0.6,0.2-0.7c0-0.5,0-1.1,0.2-1.6c0.2-0.4,0.4-0.8,0.8-1.1c0.2-0.1,0.6-0.4,0.8-0.2
		c0.2,0.2,0.1,0.5,0,0.7c0,0.1-0.1,0.2-0.1,0.3c-0.3,0.7-0.6,1.4-0.5,2.2c0,0.8,0,2.1-1.3,2.2c-0.1,0-0.3,0-0.4-0.1
		s-0.2-0.1-0.4-0.1c-0.3,0-0.4,0.3-0.5,0.5c-0.5,1.3-1.7,2-3.1,1.4c-1-0.4-1.5-1.5-1-2.4c0.1-0.1,0.5-0.9,0.1-0.9
		c-0.3,0-0.7-0.2-0.8-0.5c-0.4-1.1,0.8-1.8,1.8-2c0.3-0.1,0.7-0.2,1.1-0.3c0.6-0.3,1.2-0.8,1.8-1.1c0.4-0.2,0.8-0.2,1.2-0.2
		c0.2,0,0.3,0.1,0.3,0.2c0.1,0.5-1.4,1.4-1.8,1.7c-0.6,0.4-1.1,0.5-1.7,0.7c-0.5,0.2-0.5,0.4,0,0.4c0.2,0,0.3,0,0.5-0.1
		c0.1,0,0.1,0,0.2,0c0.4-0.1,0.3,0.1,0.2,0.4C98.7,78,98.6,78.3,98.4,78.6 M97.1,84.4c-0.6-1.3,0.7-1.5,1.5-0.9
		c0.4,0.3,0.8,0.7,1,1.1c0.3,0.5,0.4,1.3-0.3,1.4c-0.3,0.1-0.2,0.3-0.1,0.5c0.3,0.7,0.6,1,0.4,1.7c-0.4,1.2-2.3,1.9-2.9,0.5
		c0-0.1-0.1-0.2-0.1-0.3c-0.2-0.2-0.3-0.2-0.5-0.1c-0.4,0.3-0.6,0.5-1,0.2c-1.1-0.6-1.3-1.9-0.7-2.9c0.2-0.4,0.4-0.6,0.5-1.1
		c0-0.3,0.2-0.6,0.4-0.6c0.3,0,0.5,0.2,0.6,0.5c0.2,0.4,0,1-0.1,1.4c0,0.1-0.2,0.6,0,0.7s0.4-0.3,0.4-0.4c0.1-0.2,0.3-0.8,0.5-0.9
		c0.1,0,0.1,0,0.2,0.1c0.3,0.4,0.4,1.1,0.5,1.6c0,0.1,0.1,0.2,0.2,0.2c0.2,0,0.2-0.4,0.2-0.6C97.7,85.7,97.5,85.1,97.1,84.4
		 M93.6,84.4c-0.5,0.3-0.6,0.3-1-0.2c-0.2-0.2-0.4,0.1-0.5,0.3c-0.1,0.1-0.2,0.2-0.3,0.4c-0.1,0.1-0.1,0.2-0.3,0.3
		c-0.8,0.6-1.9,0.2-2.3-0.7c-0.1-0.3-0.2-0.5-0.1-0.8c0-0.2,0.1-0.7,0-0.8c-0.1-0.1-0.3-0.1-0.5-0.1c-0.4,0.1-0.7-0.1-0.9-0.5
		c-0.2-0.4-0.1-0.9,0.1-1.4c0.3-0.6,0.9-1,1.4-1.4c0.6-0.4,1.1-0.8,1.4-1.5c0.1-0.3,0.3-0.7,0.4-1c0.4-0.8,0.9-0.4,0.9,0.3
		c0,0.5-0.1,0.9-0.3,1.3c-0.3,0.8-0.7,1.5-1.5,2c-0.2,0.1-0.3,0.2-0.5,0.3c-0.1,0-0.5,0.2-0.4,0.3c0,0.1,0.2,0.1,0.2,0.1s0,0,0.1,0
		c0.4-0.1,0.8-0.2,1.2-0.4c0.1-0.1,0.4-0.2,0.5-0.2l0,0c0.3,0.1-0.2,1.4-0.3,1.7c-0.1,0.1-0.4,1-0.2,1.1c0.1,0.1,0.4-0.4,0.5-0.5
		s0.1-0.2,0.1-0.3c0.1-0.4,0.3-0.9,0.5-1.3c0.1-0.3,0.2-0.6,0.3-0.8c0-0.1,0.1-0.2,0.2-0.3c0.1-0.1,0.2,0.3,0.3,0.4
		c0,0.2,0.1,0.3,0.1,0.5s0.1,0.4,0.1,0.5s0,0.2,0.1,0.4c0,0.1,0.1,0.4,0.2,0.3c0.1,0,0.1-0.5,0.1-0.6c0-0.6-0.2-1.2-0.3-1.8
		c-0.2-0.6-0.3-1.1-0.3-1.8c0-0.3,0-0.6,0.2-0.8c0.4-0.6,1.1,0,1.3,0.4c0.2,0.3,0.3,0.6,0.4,1c0.1,0.3,0.2,0.7,0.2,1
		c0,0.1-0.1,0.7-0.3,0.6c-0.1,0-0.2,0-0.2,0.1s-0.1,0.2-0.1,0.2c0,0.1,0,0.2,0,0.3c0,0.3,0.1,0.6,0.1,0.8c0,0.3,0.1,0.7,0.1,1
		C94.3,83.5,94.1,84.1,93.6,84.4 M51.5,74.9c0.1,0.6-0.2,0.9-0.6,1.4c-0.1,0.2-0.1,0.3-0.2,0.5c0,0.8,0.1,1.6-0.7,2.1
		c-0.5,0.3-1.2,0.4-1.7,0.1c-0.4-0.2-0.7-0.5-0.9-0.9c-0.3-0.6-0.5-1.3-1.3-1.2c-1.1,0.2-1.4-0.3-1.4-1.4c0-0.5,0.1-1.1,0.3-1.6
		c0.1-0.6,0.2-1.2,0.1-1.8c0-0.3-0.2-0.7-0.2-1c-0.1-0.3-0.1-0.7,0.3-0.8c0.5-0.1,1,0.7,1.2,1.1c0.3,0.6,0.8,1.4,0.6,2.1
		c0,0.2-0.1,0.3-0.1,0.5c-0.1,0.3-0.3,0.6-0.4,0.9c-0.1,0.2-0.1,0.3,0,0.3c0.1,0.1,0.2,0,0.3-0.2s0.3-0.4,0.4-0.6
		c0.1-0.1,0.3-0.4,0.4-0.4c0.1,0,0.2,0.4,0.3,0.5c0.1,0.4,0.3,0.8,0.4,1.2c0.1,0.2,0.4,1.2,0.6,1.1c0.1,0,0.1-0.2,0-0.3
		c0-0.5-0.2-1-0.3-1.5c0-0.1,0-0.2-0.1-0.2c-0.1-0.5-0.1-0.6,0.2-0.5s0.5,0.2,0.9,0.3c0.2,0,0.4,0,0.4,0c0.1-0.2-0.5-0.4-0.6-0.4
		c-0.6-0.3-1-0.5-1.4-1c-0.1-0.2-0.2-0.4-0.3-0.6c0-0.1-0.1-0.3-0.1-0.4c0,0,0.1,0,0.2,0c0.5,0,0.9,0,1.4-0.1c0.2,0,0.3-0.2,0-0.3
		h-0.1c-0.4-0.1-0.9-0.1-1.3-0.2c-0.4-0.1-0.9-0.6-1.2-0.9c-0.1-0.1-0.2-0.2-0.2-0.3c-0.1-0.2-0.1-0.3,0.1-0.4
		c0.3-0.2,0.9,0.1,1.1,0.2c0.2,0.1,0.4,0.2,0.6,0.3c0.2,0.1,0.3,0.1,0.5,0.1c0.6,0.1,1,0.2,1.4,0.7c0.3,0.4,0.3,0.9,0.2,1.4
		c-0.1,0.3,0,0.6,0.2,0.9C51,74.1,51.4,74.2,51.5,74.9 M55.1,113.6c-1.8-0.6-3.5-1.4-5.2-2.2l0,0c-0.1-0.1-0.2-0.1-0.4-0.2
		s-0.3-0.2-0.4-0.3c-0.1-0.1-0.1-0.3-0.1-0.5c0-0.1,0-0.2,0.1-0.2c0.3-0.5,0.7-0.6,1-0.3c0.4,0.3,0.3,0.8,0.8,1.2
		c0.1,0.1,0.2,0.1,0.3,0.1c0.2,0,0.3-0.2,0.2-0.5c0-0.1-0.1-0.2-0.1-0.3c-0.2-0.6-0.3-1.5,0.2-1.9c0.2-0.2,0.4-0.2,0.6-0.1
		c0.1,0.1,0.1,0.2,0.1,0.3c0,0.2,0,0.3-0.1,0.4c0,1.1,0.2,1.8,1,2.5c0.3,0.3,0.6,0.4,0.9,0.5c0.3,0,0.3-0.2,0.1-0.4
		c-0.1-0.2-0.3-0.3-0.4-0.6c-0.6-0.9-0.9-2.5-0.1-3.3c0.1-0.1,0.2-0.2,0.4-0.3c0.1,0,0.2-0.1,0.2-0.1c0.5-0.1,0.5,0.2,0.3,0.5
		c-0.2,0.4-0.3,0.6-0.4,1c0,0.2,0,0.4,0,0.6c0.1,0.8,0.5,1.2,1,1.8c0.1,0.1,0.2,0.2,0.3,0.3c0.3,0.3,0.7,0.7,1,1
		c0.3,0.4,0.9,0.5,0.7-0.3c-0.1-0.2-0.1-0.5-0.2-0.6c0-0.1,0-0.2-0.1-0.3c0-0.1,0-0.1,0-0.2c0-0.3,0.4-0.3,0.6-0.1
		c0.5,0.5,0.7,1,1.1,1.5c0.1,0.1,0.2,0.4,0.4,0.6c0.1,0.1,0.2,0.3,0.4,0.4c0.8,0.6,0.6-0.1,0.4-0.7c-0.2-0.7-0.4-1.5-0.5-1.7
		c0-0.3-0.1-0.5,0.1-0.6c0.2-0.1,0.4,0.1,0.6,0.3c0.7,0.9,0.9,1.8,1.7,2.8c0.4,0.6,0.8,0.7,0.8,0.4c0-0.5-0.6-2-0.9-3
		c0-0.2-0.1-0.3-0.1-0.4c-0.1-0.4-0.1-0.6,0.1-0.7c0.1-0.1,0.3,0,0.5,0.3c0.1,0.1,0.2,0.3,0.3,0.5c0.4,0.6,0.7,1.4,1.1,2.2
		c0.6,1,0.8,1.4,1.1,1.3c0.2-0.1,0.1-0.5-0.1-1.3c-0.1-0.4-1-3.2-0.6-3.3c0.2-0.1,0.4,0.1,0.6,0.4c0.4,0.7,0.6,1.1,1,1.8
		c0.2,0.4,1.2,2.1,1.5,2.4s0.5,0,0.3-0.6c-0.4-1.3-0.6-1.7-0.9-2.9c-0.1-0.3-0.1-0.6,0.1-0.7s0.4,0.1,0.6,0.4
		c0.3,0.4,0.3,0.5,0.6,0.9c0.5,0.9,0.9,1.6,1.5,2.5c0.2,0.3,0.4,0.5,0.6,0.5c0.3,0,0.3-0.5,0.3-0.9c0-0.2,0-0.3,0-0.5
		c0.1-0.6,0.5-0.5,0.8-0.1s0.5,1.1,0.8,1.4c0.2,0.2,0.3,0.3,0.4,0.1c0.4-0.5-0.3-3.1,0.3-3.2c0.2,0,0.4,0.1,0.5,0.4
		c0.4,0.7,0.8,2.4,1.2,2.7c0.1,0,0.1,0.1,0.2,0.1c0.7-0.1-0.2-4.1,0.5-4.2s0.8,1.6,1.1,2.9c0.1,0.4,0.3,1.2,0.8,1.1
		c0.4,0,0.3-1.1,0.3-1.5c-0.1-1-0.1-2.6,0.7-2.6c0.8,0,0.7,1.3,0.6,2.2c0,0.2-0.1,0.4-0.1,0.6c-0.2,0.7-0.1,1.1,0,1.2
		c0.2,0.1,0.9-0.4,1.2-1.4c0.2-0.4,0.3-0.9,0.5-1.3c0.1-0.2,0.3-0.4,0.5-0.4s0.3,0.3,0.3,0.4c0,0.2,0,0.8-0.1,1.3
		c-0.2,0.8-0.1,1.7,0.6,0.8c0.3-0.4,0.5-0.9,0.8-1.4c0.2-0.3,0.4-0.5,0.6-0.5s0.3,0.3,0.3,0.6c0,0.3-0.2,0.8,0,1.1
		c0,0.1,0.1,0.1,0.3,0.1c0.6-0.2,0.6-1.1,1.2-1.4c0.4-0.3,0.8-0.2,0.6,0.5c-0.1,0.2-0.1,0.4,0,0.4c0.1,0.1,0.2,0,0.4-0.1
		c0.5-0.3,1.3-1.2,1.4-1.7c0.2-0.6,0.1-1.3-0.2-2c-0.1-0.3-0.4-0.8-0.5-1.2c-0.1-0.2-0.1-0.3-0.1-0.4s0-0.2,0.1-0.2
		c0.1-0.1,0.3,0,0.5,0.1c0.8,0.5,1.3,1.4,1.4,2.3c0.1,0.6,0,1.1-0.2,1.6c-0.1,0.2-0.1,0.4-0.1,0.5s0.1,0.2,0.2,0.1
		c0.4-0.1,0.8-0.5,0.9-0.9c0.1-0.3,0.2-0.7,0.2-1.1c0-0.1,0-0.8-0.2-1.3c-0.1-0.4,0-0.5,0.2-0.5c0.5,0.1,0.7,0.6,0.8,1
		c0.1,0.4,0,0.9,0,1.3c-0.1,0.8,0.6,0.7,0.8,0.2c0.1-0.3,0.1-0.7,0.3-0.9c0.2-0.2,0.4-0.3,0.8-0.1c0.1,0,0.2,0.1,0.3,0.2
		c0.4,0.4,0.4,0.8,0.1,1.1c-0.2,0.3-0.8,0.5-1.2,0.7c-6.1,3-13,4.6-20.2,4.6C65.2,116.3,60,115.4,55.1,113.6L55.1,113.6 M80.5,124.1
		l-1.5,0.3l-0.2-0.9l4.2-0.9l0.1,1l-1.5,0.3l1.1,5.1l-1.1,0.2L80.5,124.1z M73.4,124.8l0.1,1.5l1.9-0.1v0.9l-1.8,0.1l0.1,1.8H76v1
		l-3.6,0.2l-0.3-6.2l3.5-0.1l-0.1,0.9H73.4z M109.9,108.4l1.3,1.3l0.3-0.3c0.2-0.2,0.5-0.5,0.5-0.8s-0.1-0.5-0.3-0.7
		c-0.5-0.5-1-0.2-1.4,0.2L109.9,108.4z M111.7,110.3l1.9,1.8l-0.8,0.8l-4.4-4.3l1.3-1.4c0.8-0.8,1.8-1,2.7-0.2
		c0.6,0.6,0.8,1.5,0.2,2.2c0.4,0,1,0.1,1.4,0.2l1.8,0.4l-0.9,1l-1.1-0.3c-0.6-0.2-1.2-0.3-1.8-0.3
		C111.9,110.2,111.9,110.2,111.7,110.3 M104.4,113.4l-1.2,0.9l-0.6-0.8l3.4-2.6l0.5,0.9l-1.2,0.9l3.2,4.2l-0.9,0.7L104.4,113.4z
		 M98.8,117.6c0.1,0.4,0.2,0.8,0.3,1.1c0.1,0.4,0.2,0.8,0.3,1.2l1.1-0.7c-0.1-0.1-0.2-0.2-0.3-0.3c-0.2-0.2-0.4-0.4-0.7-0.6
		c-0.2-0.2-0.4-0.4-0.6-0.6C99,117.7,98.9,117.6,98.8,117.6 M101.4,119.9l-1.6,1l0.4,1.6l-1,0.6l-1.5-6.3l1.1-0.7l4.9,4.2l-1,0.6
		L101.4,119.9z M91.2,121l0.8,1.8l0.7-0.3c0.6-0.3,0.8-0.7,0.5-1.3c-0.1-0.2-0.3-0.5-0.5-0.6c-0.3-0.1-0.6-0.1-0.8,0.1L91.2,121z
		 M92.3,123.7l0.9,2.1l-1,0.4l-2.5-5.7l1.5-0.7c0.5-0.2,1-0.4,1.6-0.4c0.7,0.1,1.2,0.5,1.4,1.1c0.5,1.1,0,2.2-1.1,2.6L92.3,123.7z
		 M121.8,90.1l1.4,0.6l0.7-1.7l0.9,0.4l-0.7,1.7l1.6,0.7l0.9-2.2l0.9,0.4l-1.4,3.3l-5.7-2.4l1.3-3.2l0.8,0.5L121.8,90.1z
		 M121.2,97.7c-0.1,0-0.3-0.1-0.4-0.1c-0.3-0.1-0.6-0.1-0.9-0.2s-0.6-0.1-0.8-0.2c-0.1,0-0.2,0-0.3-0.1c0.3,0.3,0.6,0.5,0.9,0.8
		s0.6,0.6,0.9,0.9L121.2,97.7z M122.2,97.9l-0.9,1.7l1.2,1.2l-0.5,1l-4.5-4.7L118,96l6.4,1.2l-0.6,1.1L122.2,97.9z M118.7,106.3
		l-5-3.7l0.7-0.9l5,3.7L118.7,106.3z M34.6,112.4c-0.3,0.4-0.5,0.7-0.8,1.1l-1.8,2.4l-0.9-0.7l3.8-4.9l1,0.8l-0.7,3.3
		c-0.1,0.4-0.2,0.9-0.3,1.3c0.3-0.4,0.5-0.8,0.8-1.1l1.7-2.2l0.8,0.7l-3.8,4.9l-0.9-0.7l0.7-3.1c0-0.1,0.1-0.2,0.1-0.3
		C34.3,113.3,34.4,112.8,34.6,112.4 M28,108.3l-1.3,1.2l1.7,1.8l-0.7,0.7l-2.5-2.6l4.5-4.3l2.4,2.5l-0.8,0.5l-1.5-1.6l-1.1,1.1
		L30,109l-0.7,0.7L28,108.3z M20.4,96.7c-0.4,0.2-0.9,0.5-1.2,0.9c-0.3,0.5-0.4,1-0.1,1.5c0.2,0.4,0.5,0.6,0.8,0.7H20l-0.4,0.8h-0.1
		c-0.6-0.2-1-0.6-1.3-1.2c-0.4-0.7-0.5-1.4-0.2-2.2c0.3-0.8,0.9-1.3,1.6-1.7c0.6-0.3,1.2-0.6,1.8-0.6c1,0,1.9,0.4,2.4,1.3
		c0.3,0.5,0.4,1.1,0.3,1.6v0.1L23.3,98v-0.1c0-0.4,0-0.7-0.2-1c-0.3-0.4-0.7-0.7-1.2-0.7C21.4,96.2,20.9,96.5,20.4,96.7 M18.1,89.6
		l0.1,0.7c0.1,0.9-0.2,1.7-1.1,2.1c-0.1,0.1-0.3,0.1-0.4,0.1c-1.1,0.2-1.9-0.7-2.3-1.6c-0.3-0.7-0.4-1.4-0.2-2.1v-0.1l1,0.1v0.1
		c-0.2,0.6-0.2,1.1,0,1.7c0.2,0.5,0.6,1,1.3,0.7c0.5-0.2,0.5-0.7,0.5-1.1l-0.1-0.7c0-0.5,0-1,0.3-1.4c0.2-0.3,0.4-0.5,0.8-0.6
		s0.7-0.2,1.1-0.1c0.7,0.2,1.2,0.7,1.4,1.4c0.3,0.6,0.3,1.4,0.2,2v0.1l-0.9-0.2v-0.1c0.1-0.5,0.1-1-0.1-1.5
		c-0.2-0.4-0.6-0.8-1.1-0.6C18,88.8,18.1,89.2,18.1,89.6 M61.7,124.1l-0.2,1.5l1.9,0.2l-0.1,0.9l-1.8-0.2l-0.2,1.8l2.4,0.3l-0.1,1
		l-3.5-0.5l0.8-6.1l3.5,0.5l-0.3,0.9L61.7,124.1z M54.4,125.2c0-0.1,0-0.3,0-0.4c0-0.3,0-0.6,0-0.9s0-0.6,0-0.9c0-0.1,0-0.2,0-0.3
		c-0.2,0.3-0.4,0.7-0.6,1c-0.2,0.4-0.4,0.7-0.7,1.1L54.4,125.2z M54.4,126.2l-1.8-0.5l-0.9,1.4l-1.1-0.3l3.7-5.4l1.2,0.3l0.2,6.5
		l-1.2-0.3L54.4,126.2z M22.1,105.3l-0.7-0.9l5.1-3.6l0.7,0.9L22.1,105.3z M46.5,125l-1-0.5l2.6-5.6l1,0.5L46.5,125z M42.9,117.3
		l-2.6,4.5l-1-0.6l2.6-4.5l-1.3-0.8l0.5-0.8l3.7,2.2l-0.6,0.8L42.9,117.3z M124.9,73.1l-0.9,0.3l-0.2-1l1.4-0.5h0.8V78h-1.1
		C124.9,78,124.9,73.1,124.9,73.1z M130.4,75.4c-0.3,0.3-0.7,0.5-1.2,0.5c-1.1,0-1.9-0.8-1.9-1.9l0,0c0-1.2,0.8-2.1,2-2.1
		c0.6,0,1,0.2,1.4,0.6c0.6,0.6,0.7,1.5,0.7,2.3v0.1c0,1.5-0.5,3.3-2.3,3.3c-0.6,0-1.1-0.2-1.6-0.6l-0.1-0.1l0.6-0.9l0.1,0.1
		c0.3,0.3,0.6,0.4,1.1,0.4C130,77,130.3,76.1,130.4,75.4 M129.4,72.8c-0.6,0-0.9,0.5-0.9,1.1l0,0c0,0.6,0.3,1,1,1c0.6,0,1-0.5,1-1
		l0,0C130.4,73.3,130,72.8,129.4,72.8 M10.5,73.1l-0.9,0.3l-0.2-1l1.4-0.5h0.8V78h-1.1V73.1z M16,75.4c-0.3,0.3-0.7,0.5-1.2,0.5
		c-1.1,0-1.9-0.8-1.9-1.9l0,0c0-1.2,0.8-2.1,2-2.1c0.6,0,1,0.2,1.4,0.6c0.6,0.6,0.7,1.5,0.7,2.3v0.1c0,1.5-0.5,3.3-2.3,3.3
		c-0.6,0-1.1-0.2-1.6-0.6L13,77.5l0.6-0.9l0.1,0.1c0.3,0.3,0.6,0.4,1.1,0.4C15.7,77,16,76.1,16,75.4 M15,72.8
		c-0.6,0-0.9,0.5-0.9,1.1l0,0c0,0.6,0.3,1,1,1c0.6,0,1-0.5,1-1l0,0C16,73.3,15.6,72.8,15,72.8 M26.1,31l1.2,1l1.2-1.4l0.7,0.6
		L28,32.6l1.3,1.2l1.6-1.8l0.7,0.6l-2.3,2.7l-4.7-4l2.3-2.6l0.6,0.7L26.1,31z M24.3,39.1C24.3,39.1,24.2,39.1,24.3,39.1
		c-0.3-0.3-0.5-0.6-0.7-0.8l-2.3-2.8l0.6-1l4.1,5.1l-0.6,0.9L19,38.9l0.7-1l3.5,0.9C23.6,38.9,24,39,24.3,39.1 M17.1,42.4l5.5,2.8
		l-0.5,1l-5.5-2.8L17.1,42.4z M18.1,50.4c-0.4-0.1-0.9-0.2-1.3-0.4l-2.7-0.9l0.3-1l5.9,2L20,51.2l-3.2,0.4c-0.1,0-0.2,0-0.3,0
		c-0.4,0-0.9,0.1-1.3,0.1c0.4,0.1,0.9,0.3,1.3,0.4l2.8,0.9l-0.4,1L13,52l0.4-1.2l3.3-0.5C17.3,50.5,17.7,50.4,18.1,50.4 M11.2,60.2
		l4.1,0.7c0.7,0.1,1.2,0,1.3-0.8c0.1-0.7-0.3-1.1-1-1.2l-4.1-0.7l0.2-1.1l4.4,0.8c1.3,0.2,1.7,1.3,1.5,2.5s-0.9,2-2.2,1.8L11,61.3
		L11.2,60.2z M34.6,26.3c0.4,0,1,0.2,1.4,0.3l1.7,0.5l-1,0.9l-1-0.4c-0.6-0.2-1.2-0.4-1.7-0.5c-0.1,0-0.2,0-0.3,0.1l1.7,2L34.5,30
		l-4.1-4.7l1.4-1.2c0.9-0.7,1.9-0.9,2.7,0C35.1,24.7,35.2,25.6,34.6,26.3 M69.2,13.5l-0.7-0.2c-0.5-0.1-0.9-0.3-1.2-0.7
		C67.1,12.3,67,12,67,11.7c0-1.2,0.9-1.9,2.1-1.9c0.7,0,1.4,0.2,2,0.5l0,0l-0.5,0.8l0,0c-0.5-0.3-0.9-0.4-1.4-0.4s-0.9,0.3-0.9,0.8
		s0.4,0.6,0.8,0.7l0.7,0.2c0.9,0.2,1.6,0.8,1.6,1.7c0,0.2,0,0.3,0,0.5c-0.2,1.1-1.3,1.6-2.3,1.6c-0.7,0-1.4-0.1-2-0.5l0,0l0.4-0.9
		h0.1c0.5,0.3,1,0.5,1.6,0.5s1.1-0.3,1.1-0.9C70.1,13.8,69.6,13.6,69.2,13.5 M61.7,15.1l-1.8,0.3l-0.2,1.7l-1.1,0.2l0.9-6.4l1.2-0.2
		l3,5.7l-1.2,0.2L61.7,15.1z M53.1,13.5l1.7,5l-1.1,0.4l-1.7-5l-1.5,0.5l-0.3-0.9l4.1-1.4l0.2,1L53.1,13.5z M46.3,15l2.5,5.6l-1,0.5
		l-2.5-5.6L46.3,15z M39.1,18.7c0.6-0.4,1.3-0.6,2-0.6h0.1v1h-0.1c-0.5,0-1,0.1-1.4,0.4s-0.7,0.7-0.4,1.1c0.2,0.4,0.7,0.3,1,0.2
		l0.7-0.2c0.9-0.3,1.7-0.1,2.3,0.7c0.1,0.1,0.2,0.3,0.2,0.4c0.4,1.1-0.3,2-1.2,2.6c-0.6,0.4-1.3,0.6-2,0.6h-0.1l-0.1-1h0.1
		c0.6,0,1.1-0.1,1.6-0.5c0.5-0.3,0.8-0.8,0.5-1.4c-0.3-0.4-0.8-0.4-1.2-0.2L40.4,22c-0.5,0.1-1,0.2-1.4,0c-0.3-0.1-0.5-0.4-0.7-0.6
		C37.6,20.4,38.1,19.3,39.1,18.7 M31.8,25.3l1.2,1.4l0.3-0.3c0.2-0.2,0.5-0.5,0.6-0.8c0-0.3-0.1-0.5-0.3-0.7c-0.5-0.6-1-0.3-1.5,0.1
		L31.8,25.3z M60.3,12.1c0,0.4-0.1,0.8-0.1,1.2s-0.1,0.8-0.1,1.2l1.3-0.2c-0.1-0.1-0.1-0.2-0.2-0.3c-0.1-0.3-0.3-0.5-0.4-0.8
		c-0.1-0.3-0.2-0.5-0.4-0.8C60.3,12.2,60.3,12.1,60.3,12.1 M128.4,52.4l-5.9,2l-0.4-1.1l5.9-2L128.4,52.4z M126.3,62.2
		c-0.2,0-0.3,0-0.5,0c-1.1-0.1-1.8-1-1.9-2.1c-0.1-0.7-0.1-1.4,0.2-2.1v-0.1l0.9,0.3v0.1c-0.2,0.6-0.3,1.1-0.2,1.7
		c0.1,0.6,0.4,1.1,1.1,1c0.5-0.1,0.6-0.5,0.7-1l0.1-0.7c0-0.5,0.2-1,0.5-1.3c0.2-0.2,0.5-0.4,0.9-0.4c1.2-0.2,2,0.7,2.2,1.8
		c0.1,0.7,0.1,1.4-0.2,2v0.1l-0.9-0.4V61c0.2-0.5,0.3-0.9,0.2-1.5c-0.1-0.5-0.4-0.9-0.9-0.8c-0.4,0.1-0.5,0.5-0.5,0.9l-0.1,0.7
		C127.7,61.3,127.2,62,126.3,62.2 M122.4,46.6l-0.1-0.7c-0.1-0.5-0.1-1,0.2-1.4c0.2-0.3,0.4-0.5,0.7-0.6c0.3-0.2,0.7-0.2,1.1-0.1
		c0.7,0.1,1.2,0.7,1.5,1.3s0.4,1.3,0.3,2v0.1L125,47v-0.1c0.1-0.5,0.1-1-0.2-1.5c-0.2-0.4-0.6-0.8-1.1-0.5c-0.4,0.2-0.4,0.6-0.3,1
		l0.1,0.7c0.1,0.9-0.1,1.7-1,2.1c-0.1,0.1-0.3,0.1-0.4,0.1c-1.1,0.2-2-0.6-2.4-1.5c-0.3-0.6-0.4-1.4-0.3-2.1v-0.1h1v0.1
		c-0.1,0.6,0,1.1,0.2,1.7c0.2,0.5,0.7,0.9,1.3,0.7C122.4,47.5,122.4,47,122.4,46.6 M118.2,40.2c0.4-0.3,0.7-0.5,1.1-0.8l2.4-1.5
		l0.6,0.9l-5.2,3.3l-0.6-1l1.7-2.7c0.1-0.1,0.1-0.2,0.2-0.3c0.2-0.4,0.5-0.7,0.7-1.1c-0.4,0.3-0.8,0.5-1.1,0.8l-2.5,1.6l-0.6-0.9
		l5.2-3.3l0.7,1l-1.7,2.9C118.7,39.4,118.5,39.8,118.2,40.2 M114.8,30.3l-1.2,1l1.2,1.4l-0.7,0.6l-1.2-1.4l-1.3,1.2l1.6,1.8
		l-0.7,0.6l-2.3-2.7l4.7-4.1l2.3,2.6l-0.8,0.5L114.8,30.3z M111.1,25.3l-4,4.7l-0.9-0.8l4.1-4.7L111.1,25.3z M102.4,24.1
		c0.3-0.2,0.6-0.4,0.9-0.7l2.9-2.1l1,0.7l-5.3,3.8l-0.8-0.6l1.9-6.3l1,0.7l-1.1,3.5C102.6,23.5,102.5,23.8,102.4,24.1 M98.1,17.4
		l-2.4,4.7l-1-0.5l2.4-4.7l-1.4-0.7l0.4-0.9l3.9,2l-0.6,0.8L98.1,17.4z M90,17.8l-1.8-0.6l-1,1.4l-1.1-0.4L90,13l1.2,0.4l-0.1,6.5
		L90,19.5V17.8z M81.3,16.1l2.2,0.4l-0.4,0.9L80,16.8l1.1-6.1l1.1,0.2L81.3,16.1z M90.2,14.4c-0.2,0.3-0.4,0.7-0.7,1
		c-0.2,0.3-0.5,0.7-0.7,1l1.3,0.4c0-0.1,0-0.3,0-0.4c0-0.3,0-0.6,0-0.9c0-0.3,0-0.6,0.1-0.9C90.2,14.6,90.2,14.5,90.2,14.4
		 M80.3,69.8c-0.1,0-0.1-0.1-0.2-0.2c-0.2-0.2-0.4-0.4-0.6-0.6c-0.4-0.5-0.4-0.5-0.1-1.1c0.7-1.2,0.6-1.1,1.4-2.4
		c0.1-0.2,0.2-0.3,0.2-0.4c0.1-0.1,0.2-0.1,0.3-0.2c0.8-0.4,2.1,0.3,1.6,1.2l0,0c-0.2,0.3-0.5,1.5-0.9,2.5c-0.1,0.2-0.1,0.4-0.2,0.7
		C81.7,70.1,81,70.4,80.3,69.8"/>
</g>
</svg>
